<svg width="18" height="18" viewBox="0 0 18 18" fill="none" xmlns="http://www.w3.org/2000/svg">
<circle cx="8.84863" cy="8.67773" r="8.5" fill="#A3E3FF"/>
<path d="M8.0697 13.2608V6.70533H9.61467V13.2608H8.0697ZM8.84645 5.77493C8.60176 5.77493 8.39121 5.69384 8.2148 5.53167C8.0384 5.36664 7.9502 5.16889 7.9502 4.93843C7.9502 4.70512 8.0384 4.50737 8.2148 4.34519C8.39121 4.18017 8.60176 4.09766 8.84645 4.09766C9.09399 4.09766 9.30454 4.18017 9.4781 4.34519C9.6545 4.50737 9.74271 4.70512 9.74271 4.93843C9.74271 5.16889 9.6545 5.36664 9.4781 5.53167C9.30454 5.69384 9.09399 5.77493 8.84645 5.77493Z" fill="#191B20"/>
</svg>
