<svg width="30" height="30" viewBox="0 0 30 30" fill="none" xmlns="http://www.w3.org/2000/svg">
<path fill-rule="evenodd" clip-rule="evenodd" d="M19.104 7.03716C18.0512 7.27132 17.265 8.0182 16.973 9.06159C16.8744 9.414 16.8507 9.95199 16.9192 10.2836C16.9492 10.4286 16.9701 10.5507 16.9656 10.5547C16.9612 10.5588 15.814 11.1526 14.4162 11.8744L11.8748 13.1867L11.7205 13.0075C11.4131 12.6507 10.9179 12.3401 10.4252 12.1953C10.0816 12.0943 9.40982 12.0833 9.09301 12.1735C8.3807 12.3761 7.83986 12.7626 7.4602 13.3403C7.13002 13.8428 7 14.2934 7 14.9351C7 15.5768 7.13002 16.0274 7.4602 16.5299C7.83986 17.1076 8.3807 17.4941 9.09301 17.6968C9.38018 17.7785 10.0786 17.7745 10.3809 17.6894C10.8796 17.5489 11.4127 17.22 11.7205 16.8627L11.8748 16.6835L14.4162 17.9958C15.814 18.7176 16.962 19.3122 16.9673 19.3172C16.9727 19.3223 16.9588 19.4044 16.9364 19.4997C16.9141 19.595 16.8964 19.8486 16.8972 20.0633C16.9019 21.3487 17.7031 22.4257 18.9223 22.7857C19.138 22.8494 19.2765 22.8646 19.6363 22.8641C20.1633 22.8633 20.3834 22.8119 20.8384 22.5832C21.5312 22.2349 22.0274 21.6255 22.269 20.8264C22.3378 20.5986 22.3495 20.4859 22.3495 20.0456C22.3495 19.6053 22.3378 19.4926 22.269 19.2648C22.0268 18.4638 21.5336 17.8592 20.8321 17.5036C19.9042 17.0332 18.8329 17.1379 17.9877 17.7817C17.8742 17.8681 17.712 18.0194 17.6271 18.118L17.4727 18.2971L14.9213 16.9799C12.6502 15.8074 12.372 15.6548 12.3894 15.5917C12.4001 15.5526 12.4268 15.3889 12.4486 15.2279C12.486 14.9522 12.4599 14.5345 12.3894 14.2785C12.372 14.2154 12.6502 14.0628 14.9213 12.8903L17.4727 11.5731L17.6271 11.7522C17.9349 12.1095 18.468 12.4385 18.9667 12.5789C19.2689 12.664 19.9673 12.668 20.2545 12.5863C20.9917 12.3765 21.5314 11.9804 21.9216 11.3626C22.2269 10.8794 22.3479 10.4428 22.3479 9.82462C22.3479 9.20646 22.2269 8.76987 21.9216 8.28664C21.5348 7.6742 20.9882 7.27065 20.2722 7.06875C20.0033 6.99294 19.3788 6.97601 19.104 7.03716Z" fill="#A4DAFF"/>
<path d="M21.25 0H8.75C3.91751 0 0 3.91751 0 8.75V21.25C0 26.0825 3.91751 30 8.75 30H21.25C26.0825 30 30 26.0825 30 21.25V8.75C30 3.91751 26.0825 0 21.25 0Z" fill="url(#paint0_linear_1267_595)" fill-opacity="0.25"/>
<path d="M21.25 0.625H8.75C4.26269 0.625 0.625 4.26269 0.625 8.75V21.25C0.625 25.7373 4.26269 29.375 8.75 29.375H21.25C25.7373 29.375 29.375 25.7373 29.375 21.25V8.75C29.375 4.26269 25.7373 0.625 21.25 0.625Z" stroke="white" stroke-opacity="0.1"/>
<defs>
<linearGradient id="paint0_linear_1267_595" x1="15" y1="0" x2="15" y2="30" gradientUnits="userSpaceOnUse">
<stop stop-color="#A3E3FF"/>
<stop offset="1" stop-color="#B85FFF" stop-opacity="0"/>
</linearGradient>
</defs>
</svg>
