<svg width="293" height="344" viewBox="0 0 293 344" fill="none" xmlns="http://www.w3.org/2000/svg">
<path fillRule="evenodd" clipRule="evenodd" d="M140.429 1.93952C138.229 3.03952 132.154 7.09352 126.929 10.9495C109.66 23.6925 86.6839 33.4575 63.3919 37.9525C53.9459 39.7755 39.2279 41.1035 15.6859 42.2555C9.5789 42.5545 8.61189 42.9065 5.42589 45.9945C3.49189 47.8685 1.47989 50.9565 0.955893 52.8565C0.351893 55.0425 0.347892 68.0825 0.944892 88.4005C4.48989 209.165 14.4319 253.257 44.6109 282.058C54.4799 291.476 60.9269 295.713 89.4289 311.517C102.079 318.53 118.588 328.285 126.116 333.194C133.644 338.102 141.406 342.561 143.366 343.102C148.28 344.458 152.522 343.092 160.11 337.707C170.189 330.554 186.105 321.002 205.46 310.489C226.624 298.994 237.004 292.405 246.014 284.745C278.118 257.452 289.828 206.476 292.475 82.4915C293.048 55.6065 292.96 53.2375 291.261 50.0115C287.672 43.1945 285.184 42.3815 265.49 41.5925C219.364 39.7435 191.643 30.1955 156.429 4.02752C151.087 0.0575218 145.623 -0.655483 140.429 1.93952ZM161.929 45.7385C179.773 56.3885 202.345 64.6255 225.429 68.9115C235.196 70.7255 253.864 72.9915 259.035 72.9915C260.806 72.9915 260.928 73.9205 260.919 87.2415C260.914 95.0795 260.467 110.267 259.926 120.992C255.225 214.13 245.876 246.962 218.499 266.474C215.161 268.853 203.654 275.617 192.929 281.503C174.979 291.354 156.686 302.049 149.498 306.894C146.652 308.812 146.491 308.817 143.998 307.052C138.466 303.136 121.564 293.212 103.543 283.301C72.6529 266.31 65.3249 260.87 57.5179 249.126C42.7709 226.943 35.9929 187.298 32.8279 104.716C32.1789 87.7885 31.8239 73.7705 32.0389 73.5645C32.2529 73.3585 38.2789 72.6735 45.4289 72.0435C79.5359 69.0365 112.637 58.1555 137.917 41.6405L146.404 36.0965L149.417 38.0825C151.073 39.1745 156.704 42.6205 161.929 45.7385Z" fill="#3375BB"/>
</svg>
