<svg width="21" height="20" viewBox="0 0 21 20" fill="none" xmlns="http://www.w3.org/2000/svg">
<path d="M0.991211 15.2636V2.11933C1.0099 2.07789 1.02568 2.03541 1.03846 1.99218C1.28566 0.891363 2.10012 0.276848 3.33095 0.276573C7.99985 0.274921 12.6688 0.274921 17.3377 0.276573C17.6447 0.260948 17.952 0.303851 18.2394 0.402517C18.5269 0.501183 18.7881 0.653397 19.0061 0.849236C19.2241 1.04508 19.394 1.28016 19.5047 1.53919C19.6154 1.79823 19.6645 2.07542 19.6488 2.35271C19.6516 7.97439 19.6516 13.5961 19.6488 19.2177C19.6488 19.2929 19.6363 19.368 19.621 19.5392L14.7571 15.4662L15.2567 17.0866C15.1726 17.0962 15.133 17.1047 15.0933 17.1047C11.1216 17.1047 7.14994 17.1127 3.17854 17.1003C2.69313 17.1014 2.22157 16.9542 1.84051 16.6827C1.45946 16.4112 1.19129 16.0314 1.0796 15.6049C1.0482 15.4923 1.02078 15.3789 0.991211 15.2636ZM12.6612 12.0611C12.8524 12.2763 13.027 12.4532 13.1755 12.6453C13.227 12.7173 13.3004 12.7744 13.3868 12.8098C13.4733 12.8452 13.5692 12.8575 13.6632 12.8451C14.1948 12.8298 14.7172 12.7155 15.1977 12.5093C15.6781 12.3031 16.1061 12.0095 16.4549 11.6469C16.5653 11.5239 16.6251 11.3703 16.6241 11.2121C16.5544 9.39332 16.0544 7.60913 15.1576 5.97934C15.1212 5.905 15.0665 5.83912 14.9976 5.78669C14.2065 5.24072 13.2553 4.91644 12.2619 4.85403C12.1667 4.86209 12.0734 4.88343 11.9855 4.91733L11.9882 4.9919C12.827 5.20249 13.6137 5.55536 14.3063 6.03163C11.6221 4.97072 8.94162 4.92916 6.25531 6.02887C7.01471 5.51608 7.86618 5.12508 8.77245 4.87301C8.67638 4.82764 8.56813 4.80752 8.46002 4.81495C7.55082 4.89246 6.68082 5.18691 5.93922 5.66809C5.80323 5.75865 5.69266 5.87675 5.61642 6.01292C4.72425 7.64478 4.23544 9.43217 4.18381 11.2514C4.18705 11.3754 4.23608 11.4948 4.32311 11.5907C4.66855 11.98 5.10431 12.2962 5.59972 12.517C6.09512 12.7378 6.63812 12.8579 7.19047 12.8688C7.27765 12.8718 7.40202 12.8751 7.44743 12.8289C7.67696 12.5963 7.88575 12.347 8.11101 12.0935C7.14537 11.7501 6.63755 11.4347 6.40406 11.0246C9.105 12.3305 11.7794 12.3555 14.4532 11.0246C13.9995 11.5397 13.3692 11.9042 12.6612 12.0611V12.0611Z" fill="#808191"/>
<g filter="url(#filter0_d_1100_11778)">
<path d="M8.34433 8.35024C8.49886 8.34691 8.65249 8.37247 8.79554 8.42535C8.93859 8.47823 9.06797 8.55727 9.17552 8.65749C9.28308 8.75771 9.3665 8.87696 9.42052 9.00771C9.47454 9.13845 9.49799 9.27786 9.4894 9.41719C9.48999 9.63054 9.41994 9.83919 9.28822 10.0163C9.1565 10.1935 8.96914 10.331 8.75018 10.4114C8.53123 10.4917 8.29067 10.5111 8.0594 10.4671C7.82813 10.4232 7.6167 10.3178 7.45225 10.1646C7.2878 10.0113 7.17782 9.81722 7.13646 9.60716C7.0951 9.3971 7.12423 9.18068 7.22011 8.98567C7.31599 8.79066 7.47425 8.62599 7.67457 8.51276C7.87489 8.39954 8.10812 8.34294 8.34433 8.35024Z" fill="#808191"/>
</g>
<g filter="url(#filter1_d_1100_11778)">
<path d="M13.3691 9.40153C13.3849 9.6735 13.2806 9.94003 13.0792 10.1428C12.8778 10.3456 12.5957 10.4681 12.2945 10.4836C11.9931 10.4708 11.7093 10.3517 11.504 10.152C11.2988 9.95228 11.1886 9.68786 11.197 9.41557C11.1867 9.14818 11.2924 8.88772 11.4917 8.6897C11.6911 8.49168 11.9682 8.37174 12.264 8.35547C12.4134 8.35639 12.5611 8.38447 12.6982 8.43798C12.8354 8.49149 12.9592 8.56935 13.0623 8.66695C13.1654 8.76456 13.2457 8.87989 13.2984 9.00609C13.3511 9.13229 13.3752 9.26676 13.3691 9.40153Z" fill="#808191"/>
</g>
<defs>
<filter id="filter0_d_1100_11778" x="3.48689" y="4.71834" width="13.2669" height="13.0344" filterUnits="userSpaceOnUse" color-interpolation-filters="sRGB">
<feFlood flood-opacity="0" result="BackgroundImageFix"/>
<feColorMatrix in="SourceAlpha" type="matrix" values="0 0 0 0 0 0 0 0 0 0 0 0 0 0 0 0 0 0 127 0" result="hardAlpha"/>
<feOffset dx="1.81563" dy="1.81563"/>
<feGaussianBlur stdDeviation="2.72345"/>
<feColorMatrix type="matrix" values="0 0 0 0 0 0 0 0 0 0 0 0 0 0 0 0 0 0 0.161 0"/>
<feBlend mode="normal" in2="BackgroundImageFix" result="effect1_dropShadow_1100_11778"/>
<feBlend mode="normal" in="SourceGraphic" in2="effect1_dropShadow_1100_11778" result="shape"/>
</filter>
<filter id="filter1_d_1100_11778" x="7.56502" y="4.7242" width="13.0686" height="13.0227" filterUnits="userSpaceOnUse" color-interpolation-filters="sRGB">
<feFlood flood-opacity="0" result="BackgroundImageFix"/>
<feColorMatrix in="SourceAlpha" type="matrix" values="0 0 0 0 0 0 0 0 0 0 0 0 0 0 0 0 0 0 127 0" result="hardAlpha"/>
<feOffset dx="1.81563" dy="1.81563"/>
<feGaussianBlur stdDeviation="2.72345"/>
<feColorMatrix type="matrix" values="0 0 0 0 0 0 0 0 0 0 0 0 0 0 0 0 0 0 0.161 0"/>
<feBlend mode="normal" in2="BackgroundImageFix" result="effect1_dropShadow_1100_11778"/>
<feBlend mode="normal" in="SourceGraphic" in2="effect1_dropShadow_1100_11778" result="shape"/>
</filter>
</defs>
</svg>
