<svg width="56" height="39" viewBox="0 0 56 39" fill="none" xmlns="http://www.w3.org/2000/svg">
<path fill-rule="evenodd" clip-rule="evenodd" d="M30.5588 32.0007C29.6765 32.0007 28.9588 32.6988 28.9588 33.5566C28.9588 34.4144 29.6765 35.1125 30.5588 35.1125C31.4407 35.1125 32.1585 34.4144 32.1585 33.5566C32.1585 32.6988 31.4407 32.0007 30.5588 32.0007ZM5.43398 22.3626C6.31625 22.3626 7.034 21.6644 7.034 20.8066C7.034 19.9485 6.31625 19.2504 5.43398 19.2504C4.55207 19.2504 3.83432 19.9485 3.83432 20.8066C3.83432 21.6644 4.55207 22.3626 5.43398 22.3626ZM5.43398 15.9878C8.16572 15.9878 10.3883 18.1496 10.3883 20.8066C10.3883 21.3241 10.3 21.8393 10.1256 22.34L26.4921 30.8137C27.4219 29.5104 28.929 28.7378 30.5588 28.7378C32.4471 28.7378 34.1687 29.7885 35.0014 31.4314L49.705 23.8918C51.2582 23.0974 52.4211 20.6089 52.2977 18.3441C52.2338 17.1626 51.8138 16.2456 51.1748 15.8915C50.7689 15.6674 50.2807 15.6871 49.7633 15.9508L49.665 16.0012C45.7696 17.9974 33.0187 24.5296 32.4822 24.7722C31.6536 25.1448 31.1928 25.2959 29.7817 24.6451L3.4246 11.3123C3.03844 11.1705 2.58795 10.8104 2.58795 10.2637C2.58795 9.50527 3.39411 9.20632 3.39642 9.20632C4.89477 8.50711 7.19965 7.45783 9.44705 6.43451C14.2506 4.24676 19.6954 1.76716 22.0868 0.549362C24.151 -0.501733 25.8127 0.384185 26.109 0.563428L26.6847 0.840486C37.446 6.01671 51.8476 12.9541 52.6675 13.4393C54.1358 14.3082 55.0451 16.0393 55.1628 18.1886C55.3467 21.5955 53.5596 25.1471 51.0054 26.4503L35.458 34.2492C35.1077 36.6088 33.0194 38.3755 30.5588 38.3755C27.8522 38.3755 25.6456 36.2533 25.6048 33.63L8.48098 24.6037C7.61279 25.2637 6.53632 25.6255 5.43398 25.6255C2.70223 25.6255 0.479576 23.4637 0.479576 20.8066C0.479576 18.1496 2.70223 15.9878 5.43398 15.9878Z" fill="url(#paint0_linear)"/>
<defs>
<linearGradient id="paint0_linear" x1="27.8277" y1="0.0439453" x2="27.8277" y2="38.3755" gradientUnits="userSpaceOnUse">
<stop offset="0.269955" stop-color="#2AAFCC"/>
<stop offset="0.391175" stop-color="#2AAFCC"/>
<stop offset="0.591647" stop-color="#47C8E4"/>
</linearGradient>
</defs>
</svg>
