<svg width="46" height="44" viewBox="0 0 46 44" fill="none" xmlns="http://www.w3.org/2000/svg">
<path d="M17.8631 38.6814C17.8631 40.1168 17.8947 41.4954 17.8511 42.8718C17.8247 43.6962 17.1206 44.1162 16.2946 43.8559C14.2207 43.2008 12.3024 42.2273 10.5346 40.9762C6.13834 37.866 3.203 33.7285 1.75791 28.5653C1.18995 26.5354 0.913866 24.4569 0.977809 22.3539C1.13804 17.0593 2.88179 12.3415 6.3768 8.30621C9.81239 4.34034 14.1311 1.86801 19.315 0.876541C21.0693 0.540829 22.8416 0.421465 24.6139 0.525908C29.7963 0.831779 34.3715 2.65656 38.2773 6.07261C41.8739 9.2186 44.1953 13.127 45.3132 17.7427C45.8255 19.8577 45.9932 22.0144 45.8428 24.1749C45.496 29.1636 43.6846 33.5853 40.3746 37.3677C37.756 40.36 34.5393 42.5048 30.7599 43.8059C29.9038 44.1006 29.2479 43.8365 29.0583 43.1329C29.0169 42.9808 29.0199 42.8137 29.0199 42.6533C29.0199 40.639 29.0267 38.6255 29.0252 36.6112C29.0244 35.1296 28.6716 33.7658 27.6012 32.6341C28.4633 32.4693 29.3065 32.3365 30.1355 32.1432C32.2344 31.6546 34.1158 30.7713 35.5285 29.0875C36.4989 27.9312 37.0812 26.5921 37.4001 25.1306C37.7853 23.3677 37.9124 21.5922 37.5942 19.8084C37.3294 18.3268 36.678 17.0153 35.6812 15.8791C35.524 15.7001 35.4879 15.5516 35.5616 15.3166C36.1348 13.4978 35.9648 11.7036 35.3126 9.94001C35.269 9.82289 35.0674 9.69755 34.932 9.68935C33.8404 9.62071 32.8301 9.95717 31.8733 10.4197C30.9886 10.8479 30.1513 11.3709 29.284 11.8364C29.1501 11.9088 28.9567 11.952 28.8138 11.9177C26.4397 11.3418 24.0347 11.0881 21.6004 11.3396C20.4516 11.4582 19.3157 11.7006 18.1791 11.914C17.9143 11.964 17.7187 11.9431 17.4907 11.7946C16.1517 10.9218 14.7623 10.1437 13.1758 9.802C12.7643 9.71322 12.3332 9.71993 11.9112 9.67816C11.6991 9.65727 11.6028 9.75873 11.5336 9.9512C10.8926 11.7484 10.7181 13.559 11.3207 15.4047C11.356 15.5121 11.3139 15.6926 11.2387 15.7807C9.50923 17.8098 8.90516 20.1583 9.12708 22.7754C9.25722 24.3167 9.51073 25.8177 10.1629 27.2322C11.2891 29.6731 13.263 31.1376 15.7906 31.8978C16.907 32.2335 18.0685 32.4223 19.2179 32.6796C19.1299 32.7811 18.99 32.9258 18.8689 33.0847C18.3777 33.73 18.1129 34.4693 17.9466 35.2534C17.9173 35.3929 17.8338 35.5876 17.7239 35.6332C16.5361 36.124 15.3175 36.3486 14.0454 35.9659C12.9072 35.6235 12.1008 34.8782 11.4945 33.8964C10.8783 32.8982 10.1103 32.0545 8.96835 31.6703C8.49894 31.5121 7.97085 31.4949 7.46758 31.483C7.28478 31.4793 7.03579 31.6419 6.93724 31.8016C6.88308 31.8896 7.05008 32.1514 7.16668 32.2947C7.29757 32.4558 7.46909 32.5968 7.64963 32.7035C8.91494 33.4533 9.65818 34.6104 10.2036 35.9151C10.9295 37.6512 12.3061 38.5382 14.1033 38.8485C15.322 39.0604 16.5429 38.9664 17.8631 38.6814Z" fill="url(#paint0_linear)"/>
<defs>
<linearGradient id="paint0_linear" x1="23.4323" y1="0.489258" x2="23.4323" y2="43.9326" gradientUnits="userSpaceOnUse">
<stop offset="0.269955" stop-color="#2AAFCC"/>
<stop offset="0.391175" stop-color="#2AAFCC"/>
<stop offset="0.591647" stop-color="#47C8E4"/>
</linearGradient>
</defs>
</svg>
