<svg width="46" height="44" viewBox="0 0 46 44" fill="none" xmlns="http://www.w3.org/2000/svg">
<g clip-path="url(#clip0)">
<path d="M24.1605 43.5066C23.289 43.5066 22.4175 43.5066 21.546 43.5066C21.4336 43.4833 21.3229 43.4459 21.2096 43.4384C18.0984 43.233 15.1492 42.4535 12.4206 41.0194C6.11706 37.7062 2.25546 32.671 0.895053 25.9155C0.732083 25.1053 0.658006 24.2785 0.542969 23.4591C0.542969 22.6273 0.542969 21.7954 0.542969 20.9636C0.568242 20.8446 0.608331 20.7265 0.617046 20.6067C0.836663 17.622 1.66458 14.7937 3.18447 12.1834C6.67046 6.19825 11.943 2.52647 19.0091 1.24792C19.8466 1.09569 20.6998 1.02416 21.546 0.916016C22.4175 0.916016 23.289 0.916016 24.1605 0.916016C24.2729 0.939307 24.3845 0.976741 24.4978 0.984227C27.5646 1.18553 30.4762 1.94418 33.1718 3.34501C39.5494 6.6591 43.4589 11.7234 44.8167 18.5487C44.9753 19.3456 45.0503 20.1583 45.1636 20.9636C45.1636 21.7954 45.1636 22.6273 45.1636 23.4591C45.1383 23.5781 45.0982 23.6962 45.0895 23.816C44.8699 26.8006 44.0419 29.6289 42.5221 32.2393C39.0361 38.2236 33.7635 41.897 26.6974 43.1747C25.8599 43.3261 25.0067 43.3977 24.1605 43.5066ZM36.0468 13.6292C35.7253 13.6292 35.5815 13.6292 35.4377 13.6292C33.3469 13.6292 31.2554 13.6391 29.1646 13.62C28.7977 13.6167 28.6426 13.7323 28.5101 14.0509C26.931 17.8441 25.3344 21.6307 23.7413 25.4181C23.6899 25.5396 23.6289 25.6577 23.5426 25.8423C23.4354 25.6311 23.3596 25.4871 23.2899 25.3407C21.485 21.5633 19.6775 17.7876 17.8831 14.006C17.7524 13.7315 17.6086 13.6175 17.2757 13.62C15.0394 13.6366 12.8032 13.6283 10.5669 13.6283C10.4257 13.6283 10.2845 13.6283 10.0231 13.6283C10.1469 13.9012 10.1939 14.1191 10.3246 14.2747C10.9974 15.0741 11.6702 15.8751 12.3849 16.6396C12.7613 17.0422 12.8982 17.4665 12.8956 17.9964C12.8799 21.4751 12.8711 24.9548 12.9025 28.4336C12.9086 29.0915 12.7247 29.604 12.2794 30.0914C11.4977 30.9482 10.7491 31.8325 10.0048 32.7192C9.86972 32.8806 9.81917 33.1069 9.705 33.3589C12.3892 33.3589 14.9532 33.3589 17.6365 33.3589C17.5319 33.1144 17.4918 32.8964 17.3646 32.745C16.5462 31.7726 15.6878 30.8309 14.8913 29.8435C14.6586 29.5549 14.4564 29.1539 14.452 28.8021C14.4215 25.8082 14.4407 22.8144 14.4442 19.8206C14.4442 19.675 14.4442 19.5286 14.4442 19.383C14.608 19.5128 14.683 19.6551 14.7527 19.8006C16.8687 24.2028 18.989 28.6032 21.0894 33.012C21.2401 33.3281 21.4301 33.3806 21.7499 33.3922C22.0951 33.4055 22.1508 33.1992 22.2415 32.9788C24.0455 28.6008 25.8503 24.2236 27.6561 19.8464C27.7145 19.7041 27.7842 19.5652 27.887 19.3423C27.9184 19.4928 27.9341 19.5328 27.9341 19.5735C27.935 23.2328 27.9393 26.8921 27.9228 30.5514C27.9219 30.7444 27.7946 30.979 27.6491 31.1229C27.0739 31.6902 26.4578 32.2201 25.8808 32.7858C25.7309 32.9322 25.6682 33.1593 25.5305 33.4155C29.0522 33.4155 32.4441 33.4155 35.9693 33.4155C35.8298 33.1568 35.7671 32.9314 35.6181 32.7833C35.0655 32.2334 34.4659 31.726 33.9265 31.1645C33.7504 30.9815 33.6145 30.6854 33.6136 30.4408C33.5953 25.8249 33.5953 21.2098 33.6145 16.5939C33.6154 16.351 33.7609 16.0557 33.9396 15.8751C34.4973 15.3111 35.1109 14.7987 35.6826 14.2472C35.8255 14.1116 35.8917 13.9012 36.0468 13.6292Z" fill="url(#paint0_linear)"/>
</g>
<defs>
<linearGradient id="paint0_linear" x1="22.8533" y1="0.916016" x2="22.8533" y2="43.5066" gradientUnits="userSpaceOnUse">
<stop offset="0.269955" stop-color="#2AAFCC"/>
<stop offset="0.391175" stop-color="#2AAFCC"/>
<stop offset="0.591647" stop-color="#47C8E4"/>
</linearGradient>
<clipPath id="clip0">
<rect width="44.6206" height="42.5906" fill="white" transform="translate(0.542969 0.916016)"/>
</clipPath>
</defs>
</svg>
