<svg width="20" height="18" viewBox="0 0 20 18" fill="none" xmlns="http://www.w3.org/2000/svg">
<path d="M15.4601 17.8829C15.1975 17.7857 14.9444 17.6595 14.7046 17.5063C12.8356 16.0299 10.9732 14.5436 9.11736 13.0473C8.59961 12.632 8.57269 12.0646 9.03814 11.5689C10.8971 9.58871 12.7566 7.60923 14.6168 5.63044C14.6589 5.58559 14.6985 5.53697 14.7424 5.49348C14.8972 5.34489 15.0005 5.17335 14.8485 4.96449C14.6966 4.75563 14.5227 4.8515 14.3556 4.96894C11.756 6.79343 9.15709 8.61814 6.55893 10.4431C6.29263 10.646 5.98558 10.7739 5.66446 10.8156C5.34334 10.8574 5.01784 10.8118 4.71627 10.6828C3.695 10.278 2.66816 9.89526 1.64379 9.50323C1.16936 9.32142 0.944695 9.03826 0.945314 8.62534C0.945314 8.22132 1.15729 7.93645 1.61005 7.7471C6.33288 5.76991 11.0559 3.79362 15.7792 1.81826C16.5281 1.50497 17.2807 1.20195 18.0272 0.879419C18.2219 0.774311 18.4407 0.736082 18.6552 0.769643C18.8697 0.803203 19.0703 0.907012 19.231 1.06773C19.3898 1.2224 19.5052 1.42427 19.5633 1.64934C19.6214 1.87441 19.6198 2.1132 19.5588 2.33732C18.6438 6.92787 17.7316 11.519 16.8221 16.1107C16.7738 16.3534 16.7345 16.5993 16.6723 16.8376C16.5881 17.1261 16.4276 17.38 16.2114 17.5664C15.9953 17.7527 15.7335 17.863 15.4601 17.8829Z" fill="#808191"/>
</svg>
