<svg width="19" height="18" viewBox="0 0 19 18" fill="none" xmlns="http://www.w3.org/2000/svg">
<path d="M9.4489 5.59381C9.4141 5.17795 9.40079 4.76015 9.40904 4.34256C9.43096 3.52701 9.66886 2.73742 10.0922 2.07498C10.5156 1.41254 11.1052 0.907441 11.7854 0.624469C13.3019 -0.0665499 14.6971 0.277592 15.9053 1.52506C15.9413 1.5686 15.9876 1.59972 16.0388 1.61476C16.0899 1.6298 16.1438 1.62814 16.1941 1.60999C16.9189 1.4274 17.6168 1.12935 18.2667 0.724832C18.309 0.698122 18.3529 0.673804 18.3964 0.650176C18.4049 0.645382 18.4174 0.650176 18.4472 0.650176C18.1648 1.59472 17.6087 2.40518 16.868 2.95162C17.577 2.8686 18.2705 2.663 18.9238 2.34208L18.9622 2.3945C18.6578 2.79651 18.3657 3.21631 18.0403 3.59572C17.7717 3.89358 17.4883 4.17402 17.1915 4.43569C17.151 4.46936 17.1188 4.51421 17.0981 4.5659C17.0774 4.61759 17.0689 4.67442 17.0734 4.73089C17.1429 7.62695 16.3143 10.4599 14.7299 12.7437C13.159 15.1093 10.8364 16.7005 8.24734 17.185C6.27993 17.6001 4.24931 17.4077 2.37131 16.6282C1.64466 16.3291 0.950394 15.9386 0.301758 15.4639C2.32004 15.7128 4.34535 15.0702 5.95074 13.6717C5.15113 13.647 4.37765 13.3459 3.73539 12.8094C3.09732 12.2756 2.62297 11.5314 2.37832 10.6802C2.93528 10.7855 3.50573 10.757 4.05222 10.5967C3.1918 10.3812 2.42342 9.83933 1.87606 9.06194C1.32871 8.28454 1.03569 7.31898 1.04619 6.32728C1.57412 6.63573 2.15611 6.80915 2.75053 6.83511C1.94315 6.21817 1.37488 5.27843 1.16124 4.20696C0.943465 3.1476 1.0929 2.03467 1.5791 1.09497C2.54232 2.41732 3.73925 3.50002 5.09399 4.27447C6.44872 5.04891 7.93171 5.49821 9.4489 5.59381Z" fill="#808191"/>
</svg>
