<svg width="46" height="43" viewBox="0 0 46 43" fill="none" xmlns="http://www.w3.org/2000/svg">
<g filter="url(#filter0_d)">
<path d="M21.9399 13.1255C21.8621 12.1947 21.8323 11.2595 21.8508 10.3248C21.8998 8.49935 22.432 6.73199 23.379 5.24924C24.3261 3.76649 25.6449 2.6359 27.1664 2.00252C30.5589 0.455794 33.6796 1.2261 36.3824 4.01833C36.463 4.11578 36.5665 4.18545 36.6809 4.21911C36.7953 4.25277 36.9159 4.24907 37.0285 4.20845C38.6498 3.79975 40.2109 3.13261 41.6647 2.22716C41.7594 2.16738 41.8574 2.11295 41.9548 2.06006C41.9738 2.04933 42.0017 2.06006 42.0684 2.06006C41.4367 4.17427 40.1927 5.98834 38.5358 7.21144C40.1219 7.02562 41.6731 6.56542 43.1346 5.84711L43.2204 5.96443C42.5396 6.86426 41.886 7.8039 41.1582 8.65314C40.5575 9.31985 39.9235 9.94758 39.2595 10.5333C39.1688 10.6087 39.0969 10.709 39.0506 10.8247C39.0044 10.9404 38.9853 11.0676 38.9953 11.194C39.1507 17.6764 37.2973 24.0175 33.7532 29.1293C30.2391 34.4244 25.0436 37.986 19.2521 39.0704C14.8512 39.9995 10.3089 39.5688 6.10794 37.8241C4.48247 37.1547 2.92946 36.2805 1.47852 35.2181C5.99324 35.7751 10.5237 34.3368 14.1148 31.2064C12.3262 31.1512 10.596 30.4773 9.15928 29.2764C7.73197 28.0817 6.67089 26.4159 6.12361 24.5106C7.36949 24.7462 8.64555 24.6825 9.868 24.3236C7.9433 23.8414 6.2245 22.6284 5.00011 20.8883C3.77572 19.1483 3.12025 16.987 3.14374 14.7673C4.32468 15.4577 5.62654 15.8459 6.95622 15.904C5.15017 14.523 3.87899 12.4196 3.4011 10.0213C2.91396 7.65011 3.24824 5.15902 4.33582 3.05566C6.49047 6.0155 9.1679 8.43896 12.1983 10.1724C15.2288 11.9059 18.5461 12.9116 21.9399 13.1255Z" fill="url(#paint0_linear)"/>
</g>
<defs>
<filter id="filter0_d" x="0.948128" y="0.686409" width="44.9242" height="41.5139" filterUnits="userSpaceOnUse" color-interpolation-filters="sRGB">
<feFlood flood-opacity="0" result="BackgroundImageFix"/>
<feColorMatrix in="SourceAlpha" type="matrix" values="0 0 0 0 0 0 0 0 0 0 0 0 0 0 0 0 0 0 127 0" result="hardAlpha"/>
<feOffset dx="1.06078" dy="1.06078"/>
<feGaussianBlur stdDeviation="0.795582"/>
<feColorMatrix type="matrix" values="0 0 0 0 0 0 0 0 0 0 0 0 0 0 0 0 0 0 0.161 0"/>
<feBlend mode="normal" in2="BackgroundImageFix" result="effect1_dropShadow"/>
<feBlend mode="normal" in="SourceGraphic" in2="effect1_dropShadow" result="shape"/>
</filter>
<linearGradient id="paint0_linear" x1="22.3494" y1="1.2168" x2="22.3494" y2="39.5484" gradientUnits="userSpaceOnUse">
<stop offset="0.269955" stop-color="#2AAFCC"/>
<stop offset="0.391175" stop-color="#2AAFCC"/>
<stop offset="0.591647" stop-color="#47C8E4"/>
</linearGradient>
</defs>
</svg>
