<svg width="26" height="29" viewBox="0 0 26 29" fill="none" xmlns="http://www.w3.org/2000/svg">
<path fill-rule="evenodd" clip-rule="evenodd" d="M26 14.5333C26 16.4533 26 18.3733 26 20.2933C26 21.4667 25.5205 22.2667 24.5082 22.8C21.1516 24.72 17.7951 26.64 14.4385 28.56C13.4262 29.1467 12.5205 29.1467 11.5082 28.56C8.15164 26.5867 4.79509 24.6667 1.38525 22.7467C0.479512 22.2133 0 21.4667 0 20.4C0 16.4533 0 12.5067 0 8.56C0 7.49333 0.42623 6.74667 1.33197 6.26667C4.7418 4.29333 8.15165 2.37333 11.5615 0.4C12.5205 -0.133333 13.4262 -0.133333 14.3852 0.4C17.7951 2.37333 21.2049 4.29333 24.6148 6.26667C25.5205 6.8 25.9467 7.54667 25.9467 8.56C26 10.5867 26 12.56 26 14.5333ZM8.2582 24.24C9.80328 25.1467 11.2951 25.9467 12.7869 26.8C12.9467 26.8533 13.1598 26.9067 13.3197 26.8C14.8115 26 16.25 25.1467 17.7418 24.2933C16.4098 22.0533 15.0779 19.8667 13.7459 17.68C14.4385 16.56 15.0779 15.5467 15.7705 14.4267C17.4754 17.2 19.1271 19.92 20.7254 22.5867C21.0984 22.3733 21.3648 22.2133 21.6844 22.0533C21.5779 21.84 21.4713 21.68 21.3648 21.52C19.8197 18.96 18.2746 16.4 16.7295 13.8933C16.623 13.68 16.4631 13.36 16.5697 13.2C17.1557 12.1867 17.7951 11.1733 18.4344 10.1067C20.2459 13.0933 22.0041 15.9733 23.7623 18.8533C23.9221 15.44 23.9221 12.08 23.8689 8.77333C23.8689 8.56 23.6025 8.24 23.3893 8.13333C20.0861 6.21333 16.8361 4.34667 13.5328 2.48C13.3197 2.37333 12.8935 2.37333 12.6271 2.48C9.32378 4.34667 6.07378 6.21333 2.7705 8.08C2.39755 8.29333 2.23771 8.56 2.23771 8.98667C2.23771 12.0267 2.23771 15.0667 2.23771 18.1067C2.23771 18.2667 2.29099 18.3733 2.34427 18.64C4.04919 15.8133 5.70083 13.1467 7.29919 10.4267C7.7787 9.62667 8.47132 9.04 9.37705 8.93333C10.2828 8.82666 11.2418 8.93333 12.2541 8.93333C9.59016 13.36 6.97951 17.68 4.31558 22C4.63525 22.2133 4.95492 22.3733 5.2746 22.5333C5.43443 22.32 5.54099 22.16 5.64754 22C8.20492 17.84 10.709 13.68 13.2664 9.46667C13.373 9.25333 13.5861 8.93333 13.7459 8.88C15.0246 8.82667 16.25 8.88 17.6353 8.88C14.4385 14.0533 11.3484 19.12 8.2582 24.24Z" fill="#808191"/>
</svg>
