<svg width="19" height="23" viewBox="0 0 19 23" fill="none" xmlns="http://www.w3.org/2000/svg">
<path fill-rule="evenodd" clip-rule="evenodd" d="M18.9997 11.5139C18.9997 12.9179 18.9997 14.3219 18.9997 15.7259C18.9997 16.5839 18.6497 17.1689 17.9109 17.5589C15.461 18.9629 13.0111 20.3668 10.5613 21.7708C9.82241 22.1998 9.16133 22.1998 8.42248 21.7708C5.9726 20.3278 3.52272 18.9239 1.03395 17.5199C0.372873 17.1299 0.0228882 16.5839 0.0228882 15.8039C0.0228882 12.9179 0.0228882 10.0319 0.0228882 7.14596C0.0228882 6.36597 0.333984 5.81998 0.995062 5.46898C3.48383 4.02599 5.9726 2.622 8.46137 1.17902C9.16133 0.789021 9.8224 0.789021 10.5224 1.17902C13.0111 2.622 15.4999 4.02599 17.9887 5.46898C18.6498 5.85897 18.9608 6.40497 18.9608 7.14596C18.9997 8.62795 18.9997 10.0709 18.9997 11.5139ZM6.05037 18.6119C7.17809 19.2749 8.26693 19.8598 9.35576 20.4838C9.47242 20.5228 9.62797 20.5618 9.74463 20.4838C10.8335 19.8988 11.8834 19.2749 12.9723 18.6509C12.0001 17.0129 11.0279 15.4139 10.0557 13.8149C10.5613 12.9959 11.0279 12.2549 11.5334 11.4359C12.7778 13.4639 13.9833 15.4529 15.1499 17.4029C15.4221 17.2469 15.6166 17.1299 15.8499 17.0129C15.7721 16.8569 15.6943 16.7399 15.6166 16.6229C14.4888 14.7509 13.3611 12.8789 12.2334 11.0459C12.1556 10.8899 12.039 10.6559 12.1167 10.5389C12.5445 9.79794 13.0111 9.05694 13.4778 8.27695C14.7999 10.4609 16.0832 12.5669 17.3665 14.6729C17.4831 12.1769 17.4831 9.71994 17.4443 7.30196C17.4443 7.14596 17.2498 6.91196 17.0943 6.83397C14.6833 5.42998 12.3112 4.06499 9.90018 2.7C9.74464 2.622 9.43354 2.622 9.23911 2.7C6.82811 4.06499 4.45601 5.42998 2.04502 6.79497C1.77281 6.95096 1.65615 7.14596 1.65615 7.45796C1.65615 9.68094 1.65615 11.9039 1.65615 14.1269C1.65615 14.2439 1.69503 14.3219 1.73392 14.5169C2.9783 12.4499 4.1838 10.4999 5.35041 8.51095C5.70039 7.92596 6.20592 7.49696 6.867 7.41896C7.52808 7.34096 8.22804 7.41896 8.96689 7.41896C7.02254 10.6559 5.11708 13.8149 3.17274 16.9739C3.40606 17.1299 3.63938 17.2469 3.8727 17.3639C3.98936 17.2079 4.06714 17.0909 4.14491 16.9739C6.01148 13.9319 7.83917 10.8899 9.70575 7.80896C9.78352 7.65296 9.93907 7.41896 10.0557 7.37996C10.989 7.34096 11.8834 7.37996 12.8945 7.37996C10.5613 11.1629 8.30581 14.8679 6.05037 18.6119Z" fill="#666681"/>
</svg>
