<svg width="18" height="18" viewBox="0 0 18 18" fill="none" xmlns="http://www.w3.org/2000/svg">
<path fill-rule="evenodd" clip-rule="evenodd" d="M8.02968 0.123898C6.78711 0.2549 5.90196 0.504481 4.86609 1.01588C2.21417 2.32514 0.410357 4.89858 0.0629346 7.86843C-0.247059 10.5184 0.634971 13.142 2.47713 15.0494C3.48952 16.0976 4.64499 16.825 6.00956 17.273C10.099 18.6156 14.526 16.7588 16.4635 12.8883C16.9304 11.9556 17.217 11.0049 17.354 9.93432C17.4139 9.46657 17.4132 8.34232 17.3529 7.86694C17.0996 5.87243 16.2158 4.04888 14.8284 2.65827C13.4986 1.32541 11.8431 0.485652 9.97357 0.195783C9.60308 0.138343 8.33677 0.0914994 8.02968 0.123898ZM12.0005 3.26919C12.5313 3.60742 12.965 3.8947 12.9642 3.90762C12.9612 3.95904 11.8352 5.68407 11.8083 5.67846C11.7454 5.66543 9.87934 4.46277 9.87881 4.43499C9.87805 4.39374 10.9865 2.65427 11.0135 2.65427C11.0256 2.65427 11.4697 2.93099 12.0005 3.26919ZM10.4285 5.78484L11.3958 6.3998L11.2219 6.67103C11.1262 6.82021 10.0455 8.51166 8.82042 10.4298C7.59527 12.348 6.56456 13.9456 6.52995 13.9801C6.47769 14.032 5.6079 14.4489 4.74222 14.8368L4.54211 14.9265V13.8496V12.7728L6.96732 8.97134C8.30121 6.88055 9.40797 5.16989 9.4268 5.16989C9.44567 5.16989 9.89638 5.44661 10.4285 5.78484Z" fill="#3772FF"/>
</svg>
