<svg width="283" height="80" viewBox="0 0 283 80" fill="none" xmlns="http://www.w3.org/2000/svg">
<rect x="0.5" y="0.5" width="282" height="79" rx="14.9507" fill="#232334" stroke="#3A3B46"/>
<g clip-path="url(#clip0_237_2319)">
<path d="M53.6991 4.77194C53.6991 4.77194 54.022 5.53475 55.226 5.93826C56.43 6.34104 57.3095 5.89846 58.4017 7.41597C58.4017 7.41597 58.0538 5.82587 56.6611 5.29043C55.2683 4.75499 54.2282 5.05937 53.6202 3.89084L53.6991 4.77194Z" fill="#B459FF"/>
<path d="M98.5825 8.69149C97.453 8.1789 96.9188 7.79234 96.0733 6.87402C95.8183 7.23921 95.6906 7.42199 95.436 7.78755C96.282 8.70587 96.8158 9.0928 97.9452 9.60502C98.2002 9.23946 98.3275 9.05705 98.5825 8.69149Z" fill="#FF4F5D"/>
<path d="M63.8375 35.9706C63.4983 36.6862 63.2484 37.0212 62.6639 37.5467C62.8849 37.7177 62.9952 37.8032 63.2162 37.9741C63.8014 37.4487 64.0513 37.1133 64.3901 36.398C64.1692 36.2271 64.0589 36.1416 63.8375 35.9706Z" fill="#FFCB00"/>
<path d="M58.2528 22.2341C57.9512 22.586 57.8304 22.8008 57.6865 23.2445C57.5447 23.162 57.4738 23.1207 57.332 23.0382C57.4763 22.5948 57.5968 22.3793 57.8988 22.0273C58.0402 22.1099 58.111 22.1515 58.2528 22.2341Z" fill="#FFCB00"/>
<path d="M92.8985 4.18967C92.5238 4.50879 92.39 4.7251 92.2706 5.20748C92.0413 5.06045 91.9263 4.98711 91.697 4.84008C91.8171 4.35807 91.9502 4.14102 92.3252 3.82227C92.5541 3.9693 92.6692 4.04263 92.8985 4.18967Z" fill="#FFCB00"/>
<path d="M80.9775 7.22042C81.8303 7.02696 82.2173 6.79517 82.796 6.12891C83.0419 6.55416 83.1652 6.76716 83.4111 7.19241C82.8321 7.85831 82.4452 8.09083 81.5927 8.2843C81.3468 7.85831 81.2238 7.64605 80.9775 7.22042Z" fill="#FF4F5D"/>
<path d="M49.588 18.1074C49.4209 18.0264 49.3262 18.0131 49.1436 18.0474C49.1569 17.9434 49.1642 17.8911 49.1779 17.7872C49.3602 17.7529 49.4549 17.7662 49.6224 17.8476C49.609 17.9515 49.6021 18.0039 49.588 18.1074Z" fill="#FF4F5D"/>
<path d="M43.4896 1.55456C43.2889 0.728002 43.0618 0.35618 42.4231 -0.192525C42.8169 -0.442373 43.014 -0.566559 43.4075 -0.816406C44.0466 -0.266963 44.2733 0.104491 44.4741 0.931419C44.0806 1.18053 43.8831 1.30545 43.4896 1.55456Z" fill="#FF4F5D"/>
<path d="M51.6431 18.4418C51.7679 18.2078 51.7921 18.0722 51.7585 17.8083C51.901 17.8353 51.9722 17.8485 52.1147 17.8758C52.1495 18.14 52.1249 18.2749 52.0001 18.5092C51.8576 18.4823 51.7863 18.4683 51.6431 18.4418Z" fill="#FF4F5D"/>
<path d="M47.7431 5.39258C47.8664 5.80457 47.9916 5.98587 48.3283 6.24567C48.1362 6.38276 48.0404 6.45093 47.848 6.58801C47.5109 6.32822 47.3865 6.14691 47.2625 5.73529C47.4545 5.59821 47.5507 5.52966 47.7431 5.39258Z" fill="#FF4F5D"/>
<path d="M34.374 18.4757C34.9133 18.3843 35.1628 18.2524 35.5469 17.8555C35.6865 18.13 35.7563 18.2671 35.8959 18.5416C35.5122 18.9381 35.2626 19.0701 34.723 19.1615C34.5841 18.8877 34.514 18.7506 34.374 18.4757Z" fill="#FF4F5D"/>
<path d="M12.6707 8.19044C13.4149 7.98371 13.7473 7.76187 14.2308 7.14941C14.4656 7.51424 14.5831 7.69701 14.8175 8.06183C14.3336 8.67429 14.0016 8.89613 13.2573 9.10323C13.0222 8.73804 12.905 8.55563 12.6707 8.19044Z" fill="#FF4F5D"/>
<path d="M51.2885 54.0525C50.7836 54.26 50.5695 54.4431 50.2805 54.9122C50.087 54.6768 49.9897 54.5585 49.7959 54.3226C50.0852 53.8531 50.2997 53.67 50.8042 53.4629C50.9977 53.6987 51.095 53.817 51.2885 54.0525Z" fill="#FF4F5D"/>
<path d="M79.9953 34.6461C79.7946 34.411 79.6601 34.3288 79.3628 34.258C79.45 34.1099 79.4934 34.0358 79.5812 33.8877C79.8789 33.9581 80.0134 34.0406 80.2145 34.2754C80.127 34.4235 80.0832 34.4979 79.9953 34.6461Z" fill="#FF4F5D"/>
<path d="M25.6607 3.23587C25.5984 2.37025 25.4339 1.95715 24.8853 1.29347C25.3225 1.11217 25.5417 1.02152 25.9796 0.839844C26.5279 1.50352 26.6932 1.91662 26.755 2.78224C26.3171 2.96318 26.0979 3.05383 25.6607 3.23587Z" fill="#FF4F5D"/>
<path d="M21.1826 22.018C21.5309 21.9491 21.6907 21.8591 21.9327 21.5957C22.0278 21.7711 22.0759 21.8588 22.171 22.0345C21.9284 22.298 21.7689 22.3883 21.421 22.4569C21.3255 22.2807 21.2781 22.1934 21.1826 22.018Z" fill="#FF4F5D"/>
<path d="M42.9134 23.375C42.853 23.8102 42.8913 24.0335 43.0931 24.4223C42.8573 24.4643 42.7391 24.4849 42.5033 24.5273C42.3011 24.1389 42.2631 23.916 42.3235 23.4804C42.5593 23.4384 42.6776 23.417 42.9134 23.375Z" fill="#FF4F5D"/>
<path d="M92.2102 28.9971C92.824 29.5274 93.207 29.6873 94.0091 29.7499C93.8395 30.1708 93.7545 30.3812 93.5849 30.802C92.7827 30.7397 92.4001 30.5794 91.7864 30.0492C91.9556 29.6283 92.0406 29.4179 92.2102 28.9971Z" fill="#FF4F5D"/>
<path d="M22.3754 31.2921C22.1642 30.9789 22.0119 30.8595 21.6604 30.7331C21.787 30.5654 21.8495 30.4822 21.9754 30.3145C22.3269 30.4416 22.4792 30.5606 22.6904 30.8735C22.5638 31.0412 22.5013 31.1248 22.3754 31.2921Z" fill="#FF4F5D"/>
<path d="M11.3932 40.3554C10.7552 39.8318 10.3617 39.6792 9.54401 39.6368C9.70567 39.2038 9.78704 38.9875 9.9487 38.5545C10.7664 38.5973 11.1603 38.7502 11.7982 39.2731C11.6362 39.7061 11.5548 39.9228 11.3932 40.3554Z" fill="#FF4F5D"/>
<path d="M78.2918 32.0303C78.4661 32.3254 78.5978 32.4415 78.9084 32.576C78.7855 32.7205 78.724 32.7927 78.6014 32.9368C78.29 32.8023 78.1587 32.6862 77.9844 32.391C78.1073 32.2466 78.1688 32.1744 78.2918 32.0303Z" fill="#01B5D6"/>
<path d="M89.19 22.2206C89.4873 22.0153 89.6008 21.8665 89.7234 21.5223C89.8808 21.6472 89.9596 21.7095 90.1169 21.8344C89.9943 22.179 89.8808 22.3275 89.5831 22.5331C89.4258 22.4078 89.347 22.3452 89.19 22.2206Z" fill="#01B5D6"/>
<path d="M11.4251 -1.13477C11.8171 -0.556579 12.0988 -0.337318 12.7495 -0.103317C12.5169 0.206229 12.4008 0.361002 12.1686 0.670915C11.518 0.437282 11.2363 0.217653 10.8442 -0.360165C11.0764 -0.670447 11.1925 -0.82522 11.4251 -1.13477Z" fill="#01B5D6"/>
<path d="M19.757 36.0113C20.1715 35.8919 20.3552 35.7666 20.6221 35.4217C20.7548 35.6243 20.821 35.7253 20.9541 35.928C20.6872 36.2725 20.5031 36.3978 20.089 36.5172C19.9563 36.3149 19.8897 36.214 19.757 36.0113Z" fill="#01B5D6"/>
<path d="M36.6049 6.74791C36.5644 7.73661 36.6982 8.22636 37.2342 9.05107C36.7148 9.19811 36.4555 9.27181 35.9365 9.41884C35.4006 8.59413 35.2668 8.10401 35.3076 7.11568C35.827 6.96828 36.0866 6.89494 36.6049 6.74791Z" fill="#01B5D6"/>
<path d="M72.2915 5.66605C72.511 6.4119 72.7342 6.74135 73.3414 7.21414C72.9924 7.45957 72.8181 7.58264 72.4695 7.82807C71.8622 7.35564 71.6387 7.0262 71.4196 6.28034C71.7678 6.03455 71.9425 5.91184 72.2915 5.66605Z" fill="#01B5D6"/>
<path d="M32.0393 29.9144C31.8957 29.2732 31.7253 28.9828 31.24 28.5498C31.5474 28.3626 31.7015 28.2694 32.0085 28.0822C32.4942 28.5156 32.6642 28.8059 32.8081 29.4471C32.5007 29.634 32.3467 29.7276 32.0393 29.9144Z" fill="#01B5D6"/>
<path d="M21.9954 15.055C21.3907 14.7178 21.0421 14.6504 20.3585 14.7388C20.4298 14.3559 20.4656 14.1643 20.5368 13.7814C21.2204 13.693 21.5686 13.7608 22.1733 14.098C22.1024 14.4809 22.067 14.6717 21.9954 15.055Z" fill="#01B5D6"/>
<path d="M9.06189 25.1016C9.51758 25.2711 9.76676 25.28 10.2333 25.1451C10.2235 25.4189 10.2188 25.5564 10.2091 25.8302C9.74253 25.9654 9.49335 25.9566 9.03766 25.787C9.04742 25.5129 9.05212 25.3758 9.06189 25.1016Z" fill="#01B5D6"/>
<path d="M66.7619 19.3304C66.6454 18.3859 66.4418 17.943 65.8035 17.248C66.2729 17.0239 66.5076 16.9116 66.9767 16.6875C67.615 17.3821 67.8186 17.8254 67.9351 18.7699C67.4657 18.994 67.2313 19.106 66.7619 19.3304Z" fill="url(#paint0_linear_237_2319)"/>
<path d="M14.5217 1.98225C14.5217 1.98225 14.5886 2.37324 15.4034 3.0863C15.4034 3.0863 15.2114 2.44288 15.8822 1.66607C16.5531 0.889627 17.982 -0.58882 17.8442 -1.6597C17.8442 -1.6597 17.8233 -1.96519 17.6862 -2.28026C17.556 -2.57986 17.1137 -3.18753 16.6392 -3.30582C16.6392 -3.30582 17.5075 -3.01175 16.88 -1.62469C16.5513 -0.898733 14.6562 1.50319 14.5217 1.98225Z" fill="#FF4F5D"/>
</g>
<g clip-path="url(#clip1_237_2319)">
<path d="M177.699 2.97506C177.699 2.97506 178.022 3.73787 179.226 4.14138C180.43 4.54416 181.309 4.10158 182.402 5.61909C182.402 5.61909 182.054 4.02899 180.661 3.49355C179.268 2.95811 178.228 3.2625 177.62 2.09396L177.699 2.97506Z" fill="#B459FF"/>
<path d="M187.837 34.1737C187.498 34.8893 187.248 35.2243 186.664 35.7498C186.885 35.9208 186.995 36.0063 187.216 36.1773C187.801 35.6518 188.051 35.3164 188.39 34.6012C188.169 34.4302 188.059 34.3447 187.837 34.1737Z" fill="#FFCB00"/>
<path d="M182.253 20.4372C181.951 20.7891 181.83 21.004 181.686 21.4476C181.545 21.3651 181.474 21.3238 181.332 21.2413C181.476 20.798 181.597 20.5824 181.899 20.2305C182.04 20.313 182.111 20.3547 182.253 20.4372Z" fill="#FFCB00"/>
<path d="M173.588 16.3106C173.421 16.2295 173.326 16.2162 173.143 16.2505C173.157 16.1466 173.164 16.0942 173.178 15.9903C173.36 15.956 173.455 15.9693 173.622 16.0508C173.609 16.1547 173.602 16.207 173.588 16.3106Z" fill="#FF4F5D"/>
<path d="M175.643 16.6449C175.768 16.4109 175.792 16.2753 175.758 16.0115C175.901 16.0384 175.972 16.0516 176.115 16.0789C176.149 16.3431 176.125 16.478 176 16.7124C175.857 16.6855 175.786 16.6715 175.643 16.6449Z" fill="#FF4F5D"/>
<path d="M171.743 3.5957C171.866 4.00769 171.991 4.189 172.328 4.4488C172.136 4.58588 172.04 4.65406 171.848 4.79114C171.51 4.53134 171.386 4.35004 171.262 3.93842C171.454 3.80133 171.55 3.73279 171.743 3.5957Z" fill="#FF4F5D"/>
<path d="M158.374 16.6788C158.913 16.5874 159.163 16.4555 159.547 16.0586C159.686 16.3331 159.756 16.4702 159.896 16.7448C159.512 17.1413 159.262 17.2732 158.723 17.3646C158.584 17.0908 158.514 16.9537 158.374 16.6788Z" fill="#FF4F5D"/>
<path d="M136.671 6.39357C137.415 6.18684 137.747 5.965 138.231 5.35254C138.466 5.71736 138.583 5.90014 138.818 6.26496C138.334 6.87741 138.002 7.09926 137.257 7.30636C137.022 6.94117 136.905 6.75876 136.671 6.39357Z" fill="#FF4F5D"/>
<path d="M126.118 16.1513C126.067 15.9803 126.016 15.9048 125.876 15.7964C125.956 15.7401 125.997 15.7117 126.076 15.6553C126.216 15.7633 126.267 15.8392 126.318 16.0102C126.238 16.0666 126.198 16.0949 126.118 16.1513Z" fill="#FF4F5D"/>
<path d="M119.929 3.12988C120.082 3.50686 120.215 3.66679 120.556 3.88053C120.387 4.02756 120.303 4.10127 120.134 4.24793C119.793 4.0342 119.659 3.87427 119.506 3.49728C119.675 3.35025 119.76 3.27655 119.929 3.12988Z" fill="#FF4F5D"/>
<path d="M108.794 0.235755C108.328 0.0739803 108.074 0.0702944 107.603 0.218803C107.606 -0.0601568 107.609 -0.199451 107.612 -0.478042C108.084 -0.62655 108.337 -0.622497 108.804 -0.460723C108.8 -0.182132 108.798 -0.0432047 108.794 0.235755Z" fill="#FF4F5D"/>
<path d="M124.466 6.29985C124.269 6.72953 124.239 6.97164 124.327 7.43743C124.071 7.405 123.943 7.38879 123.686 7.35636C123.598 6.89094 123.628 6.64883 123.825 6.21878C124.081 6.25121 124.21 6.26742 124.466 6.29985Z" fill="#FF4F5D"/>
<path d="M128.303 32.4697C128.446 33.0633 128.609 33.3298 129.067 33.7244C128.784 33.9032 128.643 33.9931 128.36 34.1722C127.902 33.7775 127.739 33.5103 127.596 32.917C127.878 32.7379 128.02 32.6484 128.303 32.4697Z" fill="#FF4F5D"/>
<path d="M121.467 16.6505C121.401 15.9348 121.258 15.5951 120.792 15.0552C121.151 14.8971 121.331 14.8179 121.691 14.6602C122.156 15.2004 122.301 15.5398 122.366 16.2554C122.007 16.4135 121.827 16.4924 121.467 16.6505Z" fill="#FF4F5D"/>
<path d="M175.288 52.2556C174.783 52.4631 174.569 52.6462 174.28 53.1154C174.087 52.8799 173.99 52.7616 173.796 52.5257C174.085 52.0563 174.3 51.8731 174.804 51.666C174.998 51.9019 175.095 52.0202 175.288 52.2556Z" fill="#FF4F5D"/>
<path d="M186.995 32.8492C186.794 32.6141 186.66 32.5319 186.363 32.4612C186.45 32.313 186.493 32.239 186.581 32.0908C186.879 32.1612 187.013 32.2438 187.214 32.4785C187.127 32.6266 187.083 32.7011 186.995 32.8492Z" fill="#FF4F5D"/>
<path d="M149.66 1.439C149.598 0.573376 149.434 0.16028 148.885 -0.5034C149.322 -0.684705 149.541 -0.775358 149.979 -0.957031C150.528 -0.293351 150.693 0.119745 150.755 0.985366C150.317 1.1663 150.098 1.25696 149.66 1.439Z" fill="#FF4F5D"/>
<path d="M145.182 20.2211C145.531 20.1522 145.691 20.0623 145.933 19.7988C146.028 19.9742 146.076 20.0619 146.171 20.2377C145.928 20.5012 145.769 20.5914 145.421 20.66C145.325 20.4838 145.278 20.3965 145.182 20.2211Z" fill="#FF4F5D"/>
<path d="M166.913 21.5781C166.853 22.0133 166.891 22.2366 167.093 22.6254C166.857 22.6674 166.739 22.6881 166.503 22.7304C166.301 22.342 166.263 22.1191 166.323 21.6835C166.559 21.6415 166.677 21.6201 166.913 21.5781Z" fill="#FF4F5D"/>
<path d="M146.375 29.4953C146.164 29.182 146.012 29.0626 145.66 28.9362C145.787 28.7686 145.849 28.6853 145.975 28.5176C146.327 28.6447 146.479 28.7638 146.69 29.0766C146.564 29.2443 146.501 29.328 146.375 29.4953Z" fill="#FF4F5D"/>
<path d="M135.393 38.5585C134.755 38.0349 134.362 37.8823 133.544 37.8399C133.705 37.407 133.787 37.1906 133.949 36.7576C134.766 36.8004 135.16 36.9533 135.798 37.4762C135.636 37.9092 135.555 38.1259 135.393 38.5585Z" fill="#FF4F5D"/>
<path d="M120.661 47.8084C120.423 47.0209 120.184 46.6738 119.538 46.1785C119.905 45.9158 120.088 45.7842 120.456 45.5215C121.102 46.0168 121.341 46.3635 121.579 47.1514C121.212 47.4145 121.028 47.5461 120.661 47.8084Z" fill="#FF4F5D"/>
<path d="M115.346 11.1348C115.515 11.2291 115.612 11.2475 115.803 11.2232C115.783 11.3301 115.773 11.3839 115.752 11.4907C115.562 11.5151 115.464 11.4963 115.296 11.4019C115.316 11.2951 115.326 11.2416 115.346 11.1348Z" fill="#FF4F5D"/>
<path d="M185.292 30.2334C185.466 30.5286 185.598 30.6447 185.908 30.7792C185.785 30.9236 185.724 30.9958 185.601 31.1399C185.29 31.0054 185.159 30.8893 184.984 30.5942C185.107 30.4497 185.169 30.3775 185.292 30.2334Z" fill="#01B5D6"/>
<path d="M98.7209 2.28727C99.0077 1.52667 99.0297 1.10805 98.824 0.321289C99.267 0.345242 99.4883 0.357403 99.9314 0.381356C100.137 1.16849 100.115 1.58711 99.8279 2.34734C99.3856 2.32302 99.1639 2.31086 98.7209 2.28727Z" fill="#01B5D6"/>
<path d="M143.757 34.2144C144.171 34.095 144.355 33.9697 144.622 33.6248C144.755 33.8275 144.821 33.9284 144.954 34.1311C144.687 34.4757 144.503 34.601 144.089 34.7204C143.956 34.518 143.89 34.4171 143.757 34.2144Z" fill="#01B5D6"/>
<path d="M160.605 4.95103C160.564 5.93974 160.698 6.42948 161.234 7.2542C160.715 7.40123 160.455 7.47493 159.936 7.62197C159.4 6.79725 159.267 6.30714 159.308 5.3188C159.827 5.1714 160.087 5.09807 160.605 4.95103Z" fill="#01B5D6"/>
<path d="M156.039 28.1175C155.895 27.4763 155.725 27.186 155.24 26.753C155.547 26.5658 155.701 26.4725 156.008 26.2853C156.494 26.7187 156.664 27.0091 156.808 27.6503C156.501 27.8371 156.346 27.9307 156.039 28.1175Z" fill="#01B5D6"/>
<path d="M145.995 13.2581C145.391 12.9209 145.042 12.8535 144.358 12.9419C144.43 12.5591 144.465 12.3674 144.537 11.9846C145.22 11.8961 145.568 11.9639 146.173 12.3011C146.102 12.684 146.067 12.8749 145.995 13.2581Z" fill="#01B5D6"/>
<path d="M133.062 23.3047C133.517 23.4743 133.767 23.4831 134.233 23.3482C134.223 23.622 134.219 23.7595 134.209 24.0333C133.742 24.1685 133.493 24.1597 133.037 23.9902C133.047 23.716 133.052 23.5789 133.062 23.3047Z" fill="#01B5D6"/>
<path d="M108.919 23.752C109.015 24.1006 109.117 24.2557 109.396 24.4801C109.231 24.5918 109.15 24.6478 108.985 24.7594C108.706 24.5347 108.605 24.3795 108.508 24.0313C108.672 23.9193 108.754 23.8636 108.919 23.752Z" fill="#01B5D6"/>
<path d="M190.762 17.5336C190.645 16.5891 190.442 16.1461 189.804 15.4511C190.273 15.2271 190.508 15.1147 190.977 14.8906C191.615 15.5853 191.819 16.0286 191.935 16.9731C191.466 17.1971 191.231 17.3091 190.762 17.5336Z" fill="url(#paint1_linear_237_2319)"/>
<path d="M138.522 0.185374C138.522 0.185374 138.589 0.576361 139.403 1.28942C139.403 1.28942 139.211 0.646007 139.882 -0.130805C140.553 -0.907248 141.982 -2.38569 141.844 -3.45657C141.844 -3.45657 141.823 -3.76206 141.686 -4.07714C141.556 -4.37673 141.114 -4.9844 140.639 -5.10269C140.639 -5.10269 141.508 -4.80862 140.88 -3.42157C140.551 -2.69561 138.656 -0.293684 138.522 0.185374Z" fill="#FF4F5D"/>
</g>
<g clip-path="url(#clip2_237_2319)">
<g clip-path="url(#clip3_237_2319)">
<path d="M250.11 11.5342C249.942 11.4531 249.848 11.4398 249.665 11.4741C249.678 11.3702 249.686 11.3179 249.699 11.214C249.882 11.1797 249.976 11.1929 250.144 11.2744C250.13 11.3783 250.124 11.4306 250.11 11.5342Z" fill="#FF4F5D"/>
<path d="M234.896 11.9024C235.435 11.811 235.684 11.6791 236.068 11.2822C236.208 11.5568 236.278 11.6938 236.417 11.9684C236.034 12.3649 235.784 12.4968 235.245 12.5882C235.106 12.3144 235.035 12.1773 234.896 11.9024Z" fill="#FF4F5D"/>
<path d="M213.192 1.6172C213.937 1.41047 214.269 1.18863 214.753 0.576172C214.987 0.940993 215.105 1.12377 215.339 1.48859C214.855 2.10105 214.523 2.32289 213.779 2.52999C213.544 2.1648 213.427 1.98239 213.192 1.6172Z" fill="#FF4F5D"/>
<path d="M202.64 11.3749C202.589 11.204 202.538 11.1284 202.398 11.0201C202.478 10.9637 202.518 10.9353 202.598 10.8789C202.737 10.9869 202.789 11.0628 202.84 11.2338C202.76 11.2902 202.72 11.3186 202.64 11.3749Z" fill="#FF4F5D"/>
<path d="M200.988 1.52348C200.79 1.95316 200.761 2.19527 200.849 2.66106C200.593 2.62863 200.465 2.61242 200.208 2.57999C200.12 2.11457 200.15 1.87246 200.346 1.44241C200.603 1.47484 200.731 1.49105 200.988 1.52348Z" fill="#FF4F5D"/>
<path d="M204.824 27.6933C204.968 28.287 205.131 28.5534 205.589 28.9481C205.306 29.1268 205.165 29.2167 204.882 29.3958C204.424 29.0011 204.261 28.734 204.117 28.1407C204.4 27.9616 204.542 27.872 204.824 27.6933Z" fill="#FF4F5D"/>
<path d="M197.989 11.8741C197.923 11.1585 197.779 10.8187 197.313 10.2788C197.673 10.1207 197.853 10.0415 198.213 9.88379C198.678 10.424 198.822 10.7634 198.888 11.4791C198.529 11.6371 198.349 11.716 197.989 11.8741Z" fill="#FF4F5D"/>
<path d="M251.81 42.4793C251.305 42.6867 251.091 42.8699 250.802 43.339C250.609 43.1035 250.511 42.9852 250.317 42.7494C250.607 42.2799 250.821 42.0967 251.326 41.8896C251.519 42.1255 251.616 42.2438 251.81 42.4793Z" fill="#FF4F5D"/>
<path d="M221.704 15.4447C222.052 15.3758 222.212 15.2859 222.454 15.0224C222.549 15.1978 222.597 15.2855 222.693 15.4613C222.45 15.7248 222.29 15.8151 221.942 15.8836C221.847 15.7075 221.8 15.6201 221.704 15.4447Z" fill="#FF4F5D"/>
<path d="M243.435 16.8018C243.374 17.237 243.413 17.4603 243.615 17.8491C243.379 17.8911 243.261 17.9117 243.025 17.9541C242.823 17.5657 242.785 17.3427 242.845 16.9072C243.081 16.8651 243.199 16.8438 243.435 16.8018Z" fill="#FF4F5D"/>
<path d="M222.897 24.7189C222.686 24.4057 222.533 24.2863 222.182 24.1599C222.308 23.9922 222.371 23.9089 222.497 23.7412C222.848 23.8684 223.001 23.9874 223.212 24.3003C223.085 24.4679 223.023 24.5516 222.897 24.7189Z" fill="#FF4F5D"/>
<path d="M211.915 33.7822C211.277 33.2585 210.883 33.106 210.065 33.0636C210.227 32.6306 210.309 32.4143 210.47 31.9813C211.288 32.024 211.682 32.177 212.32 32.6999C212.158 33.1329 212.076 33.3495 211.915 33.7822Z" fill="#FF4F5D"/>
<path d="M197.183 43.0321C196.945 42.2446 196.705 41.8974 196.06 41.4022C196.427 41.1394 196.61 41.0079 196.977 40.7451C197.624 41.2404 197.863 41.5872 198.101 42.375C197.734 42.6381 197.55 42.7697 197.183 43.0321Z" fill="#FF4F5D"/>
<path d="M220.279 29.438C220.693 29.3186 220.877 29.1933 221.144 28.8484C221.276 29.0511 221.343 29.1521 221.476 29.3547C221.209 29.6993 221.025 29.8246 220.611 29.944C220.478 29.7417 220.411 29.6407 220.279 29.438Z" fill="#01B5D6"/>
<path d="M237.126 0.174667C237.086 1.16337 237.22 1.65311 237.756 2.47783C237.236 2.62487 236.977 2.69857 236.458 2.8456C235.922 2.02088 235.788 1.53077 235.829 0.542436C236.348 0.395033 236.608 0.321701 237.126 0.174667Z" fill="#01B5D6"/>
<path d="M232.561 23.3412C232.417 22.7 232.247 22.4096 231.761 21.9766C232.069 21.7894 232.223 21.6962 232.53 21.509C233.016 21.9423 233.186 22.2327 233.33 22.8739C233.022 23.0607 232.868 23.1543 232.561 23.3412Z" fill="#01B5D6"/>
<path d="M222.517 8.48175C221.912 8.14456 221.564 8.07713 220.88 8.16557C220.951 7.78269 220.987 7.59107 221.058 7.20819C221.742 7.11975 222.09 7.18755 222.695 7.52474C222.624 7.90762 222.588 8.0985 222.517 8.48175Z" fill="#01B5D6"/>
<path d="M209.583 18.5284C210.039 18.6979 210.288 18.7067 210.755 18.5719C210.745 18.8457 210.74 18.9831 210.731 19.2569C210.264 19.3922 210.015 19.3833 209.559 19.2138C209.569 18.9396 209.574 18.8026 209.583 18.5284Z" fill="#01B5D6"/>
</g>
</g>
<defs>
<linearGradient id="paint0_linear_237_2319" x1="65.8032" y1="18.0088" x2="67.9348" y2="18.0088" gradientUnits="userSpaceOnUse">
<stop stop-color="#CE38BF"/>
<stop offset="0.7261" stop-color="#E051CA"/>
<stop offset="1" stop-color="#E85CCF"/>
</linearGradient>
<linearGradient id="paint1_linear_237_2319" x1="189.803" y1="16.2119" x2="191.935" y2="16.2119" gradientUnits="userSpaceOnUse">
<stop stop-color="#CE38BF"/>
<stop offset="0.7261" stop-color="#E051CA"/>
<stop offset="1" stop-color="#E85CCF"/>
</linearGradient>
<clipPath id="clip0_237_2319">
<rect width="87.6338" height="70" fill="white" transform="translate(10)"/>
</clipPath>
<clipPath id="clip1_237_2319">
<rect width="99.9021" height="69" fill="white" transform="translate(95.4789)"/>
</clipPath>
<clipPath id="clip2_237_2319">
<rect width="87.6191" height="65" fill="white" transform="translate(195.381 2)"/>
</clipPath>
<clipPath id="clip3_237_2319">
<rect width="91.9296" height="65" fill="white" transform="translate(159 0.223633)"/>
</clipPath>
</defs>
</svg>
