<svg width="45" height="20" viewBox="0 0 45 20" fill="none" xmlns="http://www.w3.org/2000/svg">
<path d="M0.167969 9.9178C0.167969 4.70908 4.39047 0.486572 9.5992 0.486572H34.592C39.8007 0.486572 44.0232 4.70908 44.0232 9.9178C44.0232 15.1265 39.8007 19.349 34.592 19.349H9.5992C4.39048 19.349 0.167969 15.1265 0.167969 9.9178Z" fill="#3772FF"/>
<path d="M6.78637 7.20362H8.85193V13.8889H10.1179V7.20362H12.1724V6.17084H6.78637V7.20362ZM14.7205 10.6684C14.7205 9.36912 15.2979 8.98044 16.2308 8.98044H16.5528V7.67003C15.6866 7.67003 15.0758 8.04761 14.7205 8.65839V7.76998H13.4545V13.8889H14.7205V10.6684ZM17.2945 10.8017C17.2945 12.6896 18.5716 13.9889 20.1597 13.9889C21.1813 13.9889 21.9143 13.5002 22.303 12.9783V13.8889H23.58V7.76998H22.303V8.65839C21.9254 8.15866 21.2147 7.67003 20.1819 7.67003C18.5716 7.67003 17.2945 8.91381 17.2945 10.8017ZM22.303 10.8239C22.303 12.1454 21.4034 12.8895 20.4484 12.8895C19.5045 12.8895 18.5938 12.1232 18.5938 10.8017C18.5938 9.48017 19.5045 8.76944 20.4484 8.76944C21.4034 8.76944 22.303 9.51349 22.303 10.8239ZM24.8209 10.8017C24.8209 12.6896 26.098 13.9889 27.7082 13.9889C28.7077 13.9889 29.4406 13.5224 29.8293 12.9672V13.8889H31.1064V5.67111H29.8293V8.62507C29.3629 8.04761 28.5189 7.67003 27.7193 7.67003C26.098 7.67003 24.8209 8.91381 24.8209 10.8017ZM29.8293 10.8239C29.8293 12.1454 28.9298 12.8895 27.9747 12.8895C27.0308 12.8895 26.1202 12.1232 26.1202 10.8017C26.1202 9.48017 27.0308 8.76944 27.9747 8.76944C28.9298 8.76944 29.8293 9.51349 29.8293 10.8239ZM35.3456 8.73613C36.2895 8.73613 37.0336 9.3358 37.0558 10.2797H33.6687C33.802 9.31359 34.4905 8.73613 35.3456 8.73613ZM38.2107 12.0677H36.8448C36.6116 12.5452 36.1785 12.9228 35.4011 12.9228C34.4683 12.9228 33.7465 12.312 33.6576 11.3014H38.3329C38.3662 11.0904 38.3773 10.8905 38.3773 10.6795C38.3773 8.88049 37.1446 7.67003 35.4011 7.67003C33.591 7.67003 32.3472 8.9027 32.3472 10.8239C32.3472 12.7451 33.6465 13.9889 35.4011 13.9889C36.9003 13.9889 37.8665 13.1338 38.2107 12.0677Z" fill="#FCFCFD"/>
</svg>
