<svg width="27" height="26" viewBox="0 0 27 26" fill="none" xmlns="http://www.w3.org/2000/svg">
<circle cx="13.1147" cy="13" r="13" fill="#3772FF"/>
<g clip-path="url(#clip0_2724_30708)">
<path d="M18.4746 13.0125C18.4738 15.9075 16.2087 18.2565 13.4192 18.2561C10.6323 18.2556 8.35811 15.9008 8.35596 13.0138C8.3538 10.1143 10.6318 7.75233 13.4274 7.75635C16.2121 7.76038 18.4755 10.1175 18.4746 13.0125ZM13.4226 8.71913C11.1342 8.71555 9.28407 10.6313 9.28363 13.0044C9.2832 15.3785 11.1304 17.3027 13.4132 17.3049C15.6916 17.3076 17.5552 15.3781 17.5582 13.0129C17.5616 10.6456 15.7097 8.7227 13.4226 8.71913Z" fill="white"/>
<path d="M8.56464 8.00357C8.79343 8.00357 9.0218 7.99955 9.25016 8.00447C9.55005 8.01073 9.73662 8.1981 9.73404 8.48161C9.73145 8.7602 9.53713 8.9507 9.24025 8.95249C8.65124 8.95562 8.06224 8.95606 7.47323 8.95249C7.17334 8.9507 6.98332 8.76691 6.97902 8.45478C6.9704 7.82873 6.9704 7.20268 6.97988 6.57663C6.98419 6.28686 7.18756 6.08965 7.44307 6.09144C7.69815 6.09323 7.88946 6.29178 7.90152 6.58244C7.91014 6.78859 7.90324 6.99608 7.90324 7.25902C8.00062 7.16601 8.06008 7.10654 8.1217 7.05019C10.3756 4.99317 12.9665 4.35505 15.815 5.30888C18.6467 6.25734 20.3943 8.33493 21.0609 11.3498C21.4125 12.9404 21.2501 14.5029 20.6748 16.0197C20.568 16.3014 20.387 16.4338 20.1621 16.4029C19.8432 16.3591 19.6778 16.0496 19.8053 15.7134C20.0828 14.98 20.25 14.2238 20.2995 13.4359C20.5107 10.0619 18.3343 6.91738 15.1631 6.0977C12.7351 5.47031 10.5747 6.05746 8.70467 7.78669C8.64651 7.84035 8.57584 7.87926 8.51078 7.92532C8.52888 7.95125 8.54654 7.97719 8.56464 8.00357Z" fill="white"/>
<path d="M18.2746 18.0223C18.063 18.0223 17.851 18.0241 17.6395 18.0218C17.309 18.0183 17.1013 17.8367 17.0962 17.5501C17.091 17.2536 17.3021 17.0617 17.6438 17.0604C18.197 17.0582 18.7499 17.0577 19.3031 17.0604C19.6823 17.0622 19.8538 17.2428 19.8542 17.6364C19.8551 18.2177 19.8559 18.799 19.8538 19.3804C19.8529 19.7193 19.6711 19.9264 19.3845 19.9214C19.1066 19.9165 18.9425 19.7193 18.9386 19.3821C18.9364 19.1908 18.9381 18.9989 18.9381 18.7641C18.861 18.8312 18.8141 18.8701 18.7692 18.9113C16.4899 21.0009 13.8698 21.6641 10.9833 20.6767C8.07835 19.6831 6.33459 17.5192 5.73266 14.4082C5.44182 12.9061 5.61675 11.4269 6.15793 9.99901C6.26996 9.70343 6.44231 9.58448 6.69265 9.6198C6.99297 9.66273 7.13516 9.9695 7.03692 10.3026C6.88439 10.8209 6.70558 11.3374 6.61983 11.8687C6.05194 15.4032 8.12316 18.8639 11.4413 19.8508C13.9378 20.5936 16.1801 20.0243 18.1281 18.2333C18.1854 18.1806 18.2556 18.1435 18.3198 18.0992C18.3048 18.0737 18.2897 18.0482 18.2746 18.0223Z" fill="white"/>
<path d="M13.4227 8.71973C15.7098 8.72331 17.5617 10.6462 17.5587 13.014C17.5557 15.3791 15.6922 17.3082 13.4137 17.306C11.1309 17.3033 9.28332 15.3796 9.28418 13.0055C9.28418 10.6319 11.1339 8.71615 13.4227 8.71973ZM14.3267 14.4436C14.2401 14.4436 14.1634 14.4436 14.0867 14.4436C13.4981 14.4436 12.9091 14.4418 12.3206 14.4445C12.0129 14.4458 11.8044 14.6422 11.8057 14.919C11.807 15.1967 12.0172 15.3907 12.3231 15.3939C12.5291 15.3961 12.7351 15.3943 12.9578 15.3943C12.9578 15.5745 12.9514 15.7297 12.9591 15.884C12.9725 16.1554 13.1664 16.3441 13.4193 16.3428C13.6757 16.3414 13.8588 16.1567 13.8704 15.8777C13.8769 15.7234 13.8717 15.5692 13.8717 15.3939C14.0333 15.3939 14.1677 15.3952 14.3026 15.3939C14.8645 15.388 15.2441 14.9959 15.2514 14.4096C15.2548 14.119 15.254 13.8287 15.2518 13.5381C15.2466 12.9237 14.8713 12.5342 14.281 12.5315C13.764 12.5292 13.2474 12.5315 12.7303 12.5306C12.6554 12.5306 12.5799 12.5239 12.5058 12.5198C12.5058 12.1974 12.5058 11.9023 12.5058 11.5808C12.595 11.5808 12.6717 11.5808 12.7489 11.5808C13.3305 11.5808 13.9118 11.583 14.4935 11.5794C14.8196 11.5776 15.0269 11.3845 15.0256 11.0969C15.0243 10.8094 14.8175 10.6238 14.4887 10.6189C14.2905 10.6158 14.0923 10.6184 13.873 10.6184C13.873 10.4329 13.8756 10.2781 13.8726 10.123C13.8661 9.80995 13.6912 9.61543 13.4189 9.61543C13.1491 9.61498 12.9647 9.81532 12.9578 10.1203C12.9544 10.2817 12.9574 10.4432 12.9574 10.6193C12.7945 10.6193 12.6588 10.6158 12.5235 10.6198C11.9616 10.6368 11.5829 11.0352 11.5782 11.6148C11.5756 11.9126 11.5756 12.2108 11.5782 12.5087C11.5838 13.0752 11.9668 13.4732 12.5166 13.4808C12.8182 13.4849 13.1198 13.4817 13.421 13.4817C13.7205 13.4817 14.0195 13.4817 14.3263 13.4817C14.3267 13.8126 14.3267 14.1149 14.3267 14.4436Z" fill="white"/>
</g>
<defs>
<clipPath id="clip0_2724_30708">
<rect width="15.652" height="16.25" fill="white" transform="translate(5.59326 4.875)"/>
</clipPath>
</defs>
</svg>
