<svg width="34" height="33" viewBox="0 0 34 33" fill="none" xmlns="http://www.w3.org/2000/svg">
<path d="M16.6922 32.212C25.9111 32.212 33.3844 25.0011 33.3844 16.106C33.3844 7.2109 25.9111 0 16.6922 0C7.47336 0 0 7.2109 0 16.106C0 25.0011 7.47336 32.212 16.6922 32.212Z" fill="#3772FF"/>
<path d="M8.91563 13.3236C10.4912 13.3236 11.93 13.3236 13.4645 13.3236C12.9726 12.6262 12.5395 11.9889 12.0741 11.3744C12.0049 11.2821 11.7855 11.267 11.6352 11.2661C10.367 11.2577 9.09924 11.2746 7.83185 11.2482C7.6348 11.2445 7.38442 11.1052 7.25862 10.9527C6.90849 10.5254 6.60966 10.0567 6.24609 9.54091C6.44681 9.52586 6.58238 9.5061 6.71795 9.5061C8.66891 9.50422 10.6199 9.51172 12.57 9.49856C12.8839 9.49668 13.0663 9.59457 13.2418 9.8468C14.3638 11.46 15.5029 13.0629 16.6734 14.7203C16.7846 14.5876 16.8794 14.4916 16.9556 14.3834C18.0275 12.868 19.0905 11.348 20.1743 9.84115C20.2855 9.68681 20.5147 9.51926 20.6914 9.51738C22.7396 9.49479 24.7875 9.50328 26.8357 9.50516C26.911 9.50516 26.986 9.52492 27.1382 9.54562C26.7413 10.1113 26.392 10.6336 26.0084 11.1315C25.9364 11.2256 25.7255 11.2548 25.5793 11.2558C24.3111 11.2652 23.0433 11.2699 21.7751 11.2548C21.4824 11.2511 21.3041 11.3339 21.1449 11.5777C20.7761 12.1452 20.3714 12.6911 19.9268 13.3236C21.4572 13.3236 22.9029 13.3236 24.4691 13.3236C24.0363 13.9419 23.6801 14.4756 23.2888 14.9848C23.2168 15.078 23.003 15.1024 22.854 15.1034C21.6514 15.1137 20.4475 15.1269 19.2457 15.1024C18.8304 15.0939 18.5698 15.2012 18.3345 15.5523C17.802 16.3495 17.7865 16.3297 18.3345 17.0817C18.8674 17.8121 19.393 18.5481 19.9011 19.2955C20.8115 20.6338 20.7423 22.3778 19.7472 23.6117C18.727 24.8776 17.0199 25.3831 15.4679 24.8786C13.9168 24.3741 12.8468 22.9746 12.8363 21.382C12.8302 20.598 13.0614 19.8705 13.5345 19.2173C14.1492 18.3693 14.7384 17.5043 15.3568 16.6591C15.5331 16.4182 15.505 16.2573 15.3694 15.9947C14.9977 15.2746 14.4688 15.0186 13.6261 15.0883C12.6099 15.1721 11.5799 15.1241 10.5555 15.0958C10.3556 15.0902 10.1 14.9603 9.97497 14.8069C9.61914 14.3702 9.31461 13.8911 8.91563 13.3236ZM16.7642 17.9251C16.6763 17.9891 16.6286 18.0088 16.6042 18.0437C16.053 18.8182 15.4854 19.5825 14.9606 20.374C14.4505 21.1421 14.6174 22.1491 15.3116 22.7778C16.0025 23.4028 17.0284 23.48 17.8256 22.9651C18.5894 22.4719 18.9941 21.4762 18.5727 20.6969C18.0536 19.7359 17.3786 18.8531 16.7642 17.9251Z" fill="white"/>
</svg>
