<svg width="21" height="20" viewBox="0 0 21 20" fill="none" xmlns="http://www.w3.org/2000/svg">
<path d="M0.689453 14.9902V1.84589C0.708142 1.80445 0.723922 1.76197 0.736702 1.71874C0.983902 0.617925 1.79836 0.00341012 3.02919 0.00313512C7.69809 0.00148312 12.367 0.00148312 17.0359 0.00313512C17.3429 -0.0124899 17.6502 0.0304131 17.9376 0.129079C18.2251 0.227745 18.4863 0.379959 18.7043 0.575798C18.9223 0.771642 19.0922 1.00672 19.2029 1.26575C19.3136 1.52479 19.3627 1.80198 19.347 2.07927C19.3498 7.70095 19.3498 13.3227 19.347 18.9443C19.347 19.0195 19.3345 19.0946 19.3192 19.2658L14.4553 15.1928L14.9549 16.8132C14.8708 16.8228 14.8312 16.8313 14.7915 16.8313C10.8198 16.8313 6.84818 16.8393 2.87678 16.8269C2.39137 16.828 1.91981 16.6808 1.53875 16.4093C1.1577 16.1378 0.889532 15.758 0.777842 15.3315C0.746442 15.2189 0.719022 15.1055 0.689453 14.9902ZM12.3594 11.7877C12.5506 12.0029 12.7252 12.1798 12.8737 12.3719C12.9252 12.4439 12.9986 12.501 13.085 12.5364C13.1715 12.5718 13.2674 12.5841 13.3614 12.5717C13.893 12.5564 14.4154 12.4421 14.8959 12.2359C15.3763 12.0297 15.8043 11.7361 16.1531 11.3735C16.2635 11.2505 16.3233 11.0969 16.3223 10.9387C16.2526 9.11988 15.7526 7.33569 14.8558 5.7059C14.8194 5.63156 14.7647 5.56568 14.6958 5.51325C13.9047 4.96728 12.9535 4.643 11.9601 4.58059C11.8649 4.58865 11.7716 4.60999 11.6837 4.64389L11.6864 4.71846C12.5252 4.92905 13.3119 5.28192 14.0045 5.75819C11.3203 4.69728 8.63986 4.65572 5.95355 5.75543C6.71295 5.24264 7.56442 4.85164 8.47069 4.59957C8.37462 4.5542 8.26637 4.53408 8.15826 4.54151C7.24906 4.61902 6.37906 4.91347 5.63746 5.39465C5.50147 5.48521 5.3909 5.60331 5.31466 5.73948C4.42249 7.37134 3.93368 9.15873 3.88205 10.978C3.88529 11.102 3.93432 11.2214 4.02135 11.3173C4.36679 11.7066 4.80255 12.0228 5.29796 12.2436C5.79336 12.4644 6.33636 12.5845 6.88871 12.5954C6.97589 12.5984 7.10026 12.6017 7.14567 12.5555C7.3752 12.3229 7.58399 12.0736 7.80925 11.8201C6.84361 11.4767 6.33579 11.1613 6.1023 10.7512C8.80324 12.0571 11.4776 12.0821 14.1514 10.7512C13.6977 11.2663 13.0674 11.6308 12.3594 11.7877Z" fill="#A3E3FF"/>
<g filter="url(#filter0_d_1_14)">
<path d="M8.04257 8.0768C8.1971 8.07347 8.35073 8.09903 8.49378 8.15191C8.63683 8.20479 8.76621 8.28383 8.87376 8.38405C8.98132 8.48427 9.06474 8.60352 9.11876 8.73427C9.17278 8.86501 9.19623 9.00442 9.18764 9.14375C9.18823 9.3571 9.11818 9.56575 8.98646 9.74286C8.85474 9.92006 8.66738 10.0576 8.44842 10.138C8.22947 10.2183 7.98891 10.2377 7.75764 10.1937C7.52637 10.1498 7.31494 10.0444 7.15049 9.89116C6.98604 9.73786 6.87606 9.54378 6.8347 9.33372C6.79334 9.12366 6.82247 8.90724 6.91835 8.71223C7.01423 8.51722 7.17249 8.35255 7.37281 8.23932C7.57313 8.1261 7.80636 8.0695 8.04257 8.0768Z" fill="#A3E3FF"/>
</g>
<g filter="url(#filter1_d_1_14)">
<path d="M13.0673 9.12809C13.0831 9.40006 12.9788 9.66659 12.7774 9.86936C12.576 10.0722 12.2939 10.1947 11.9927 10.2102C11.6913 10.1974 11.4075 10.0783 11.2022 9.87856C10.997 9.67884 10.8868 9.41442 10.8952 9.14213C10.8849 8.87474 10.9906 8.61428 11.1899 8.41626C11.3893 8.21824 11.6664 8.0983 11.9622 8.08203C12.1116 8.08295 12.2593 8.11103 12.3964 8.16454C12.5336 8.21805 12.6574 8.29591 12.7605 8.39351C12.8636 8.49112 12.9439 8.60645 12.9966 8.73265C13.0493 8.85885 13.0734 8.99332 13.0673 9.12809Z" fill="#A3E3FF"/>
</g>
<defs>
<filter id="filter0_d_1_14" x="3.18514" y="4.44491" width="13.2668" height="13.0343" filterUnits="userSpaceOnUse" color-interpolation-filters="sRGB">
<feFlood flood-opacity="0" result="BackgroundImageFix"/>
<feColorMatrix in="SourceAlpha" type="matrix" values="0 0 0 0 0 0 0 0 0 0 0 0 0 0 0 0 0 0 127 0" result="hardAlpha"/>
<feOffset dx="1.81563" dy="1.81563"/>
<feGaussianBlur stdDeviation="2.72345"/>
<feColorMatrix type="matrix" values="0 0 0 0 0 0 0 0 0 0 0 0 0 0 0 0 0 0 0.161 0"/>
<feBlend mode="normal" in2="BackgroundImageFix" result="effect1_dropShadow_1_14"/>
<feBlend mode="normal" in="SourceGraphic" in2="effect1_dropShadow_1_14" result="shape"/>
</filter>
<filter id="filter1_d_1_14" x="7.26328" y="4.45076" width="13.0682" height="13.0219" filterUnits="userSpaceOnUse" color-interpolation-filters="sRGB">
<feFlood flood-opacity="0" result="BackgroundImageFix"/>
<feColorMatrix in="SourceAlpha" type="matrix" values="0 0 0 0 0 0 0 0 0 0 0 0 0 0 0 0 0 0 127 0" result="hardAlpha"/>
<feOffset dx="1.81563" dy="1.81563"/>
<feGaussianBlur stdDeviation="2.72345"/>
<feColorMatrix type="matrix" values="0 0 0 0 0 0 0 0 0 0 0 0 0 0 0 0 0 0 0.161 0"/>
<feBlend mode="normal" in2="BackgroundImageFix" result="effect1_dropShadow_1_14"/>
<feBlend mode="normal" in="SourceGraphic" in2="effect1_dropShadow_1_14" result="shape"/>
</filter>
</defs>
</svg>
