<svg width="20" height="18" viewBox="0 0 20 18" fill="none" xmlns="http://www.w3.org/2000/svg">
<path d="M15.1583 17.6095C14.8957 17.5123 14.6426 17.3861 14.4028 17.2329C12.5338 15.7565 10.6714 14.2702 8.8156 12.7739C8.29785 12.3586 8.27093 11.7912 8.73638 11.2955C10.5953 9.31527 12.4548 7.33579 14.315 5.357C14.3571 5.31215 14.3967 5.26353 14.4406 5.22004C14.5954 5.07145 14.6987 4.89991 14.5467 4.69105C14.3948 4.48219 14.2209 4.57806 14.0538 4.6955C11.4542 6.51999 8.85533 8.3447 6.25717 10.1697C5.99087 10.3726 5.68382 10.5005 5.3627 10.5422C5.04158 10.584 4.71608 10.5384 4.41451 10.4094C3.39324 10.0046 2.3664 9.62182 1.34203 9.22979C0.867602 9.04798 0.642937 8.76482 0.643556 8.3519C0.643556 7.94788 0.855532 7.66301 1.30829 7.47366C6.03112 5.49647 10.7541 3.52018 15.4774 1.54482C16.2263 1.23153 16.9789 0.928513 17.7254 0.605982C17.9201 0.500874 18.1389 0.462645 18.3534 0.496206C18.5679 0.529766 18.7685 0.633574 18.9292 0.794292C19.088 0.948962 19.2034 1.15083 19.2615 1.3759C19.3196 1.60097 19.318 1.83976 19.257 2.06388C18.342 6.65443 17.4298 11.2456 16.5203 15.8373C16.472 16.08 16.4327 16.3259 16.3705 16.5642C16.2863 16.8527 16.1258 17.1066 15.9096 17.293C15.6935 17.4793 15.4317 17.5896 15.1583 17.6095Z" fill="#A3E3FF"/>
</svg>
