<svg width="19" height="18" viewBox="0 0 19 18" fill="none" xmlns="http://www.w3.org/2000/svg">
<path d="M9.14714 5.32037C9.11234 4.90451 9.09903 4.48671 9.10728 4.06912C9.1292 3.25357 9.3671 2.46398 9.79044 1.80154C10.2138 1.1391 10.8034 0.634003 11.4836 0.351031C13.0001 -0.339988 14.3953 0.00415432 15.6035 1.25162C15.6395 1.29516 15.6858 1.32628 15.737 1.34132C15.7881 1.35636 15.842 1.3547 15.8923 1.33655C16.6171 1.15396 17.315 0.855912 17.9649 0.451394C18.0072 0.424684 18.0511 0.400366 18.0946 0.376738C18.1031 0.371944 18.1156 0.376738 18.1454 0.376738C17.863 1.32128 17.3069 2.13174 16.5662 2.67818C17.2752 2.59516 17.9687 2.38956 18.622 2.06864L18.6604 2.12106C18.356 2.52307 18.0639 2.94287 17.7385 3.32228C17.4699 3.62014 17.1865 3.90058 16.8897 4.16225C16.8492 4.19592 16.817 4.24077 16.7963 4.29246C16.7756 4.34415 16.7671 4.40098 16.7716 4.45745C16.8411 7.35351 16.0125 10.1865 14.4281 12.4703C12.8572 14.8359 10.5346 16.4271 7.94558 16.9116C5.97817 17.3267 3.94755 17.1343 2.06955 16.3548C1.3429 16.0557 0.648636 15.6652 0 15.1905C2.01828 15.4394 4.04359 14.7968 5.64898 13.3983C4.84937 13.3736 4.07589 13.0725 3.43363 12.536C2.79556 12.0022 2.32121 11.258 2.07656 10.4068C2.63352 10.5121 3.20397 10.4836 3.75046 10.3233C2.89004 10.1078 2.12166 9.56589 1.5743 8.7885C1.02695 8.0111 0.733932 7.04554 0.744432 6.05384C1.27236 6.36229 1.85435 6.53571 2.44877 6.56167C1.64139 5.94473 1.07312 5.00499 0.859482 3.93352C0.641707 2.87416 0.791142 1.76123 1.27734 0.821532C2.24056 2.14388 3.43749 3.22658 4.79223 4.00103C6.14696 4.77547 7.62995 5.22477 9.14714 5.32037Z" fill="#A3E3FF"/>
</svg>
