<svg width="31" height="32" viewBox="0 0 31 32" fill="none" xmlns="http://www.w3.org/2000/svg">
<g filter="url(#filter0_d_1607_11316)">
<path fill-rule="evenodd" clip-rule="evenodd" d="M15.1114 6.4999C13.0864 7.88238 10.6669 8.71197 8.66003 8.71197H8.12061L8.13404 12.8352C8.14738 16.9324 8.14806 16.9607 8.24853 17.3155C8.6074 18.583 9.33994 19.8059 10.4148 20.9317C12.1052 22.7022 14.3711 23.9263 15.76 23.8192C16.9654 23.7262 18.4877 22.9687 19.8943 21.7618C21.2978 20.5576 22.2937 19.1881 22.7853 17.7864C23.0628 16.9949 23.063 16.9918 23.063 12.6579V8.71197L22.5034 8.71174C20.5348 8.71101 18.2054 7.91624 16.1397 6.54056L15.589 6.17383L15.1114 6.4999ZM18.8301 12.7096C19.0969 12.8855 19.3145 13.0499 19.3138 13.0751C19.3131 13.1002 18.5052 14.3235 17.5186 15.7934C16.2831 17.6343 15.6773 18.4981 15.5723 18.5689C15.3883 18.6929 15.1431 18.7019 14.9464 18.5918C14.8678 18.5478 14.3452 17.967 13.785 17.3011C13.2248 16.6352 12.6776 15.9852 12.5691 15.8567L12.3717 15.623L12.8298 15.2399C13.0818 15.0292 13.3055 14.8508 13.327 14.8435C13.3567 14.8334 14.5245 16.1789 15.1144 16.903C15.1792 16.9825 15.2876 16.8336 16.7346 14.677C17.5875 13.4058 18.2988 12.3712 18.3152 12.3777C18.3317 12.3844 18.5634 12.5337 18.8301 12.7096Z" fill="#A3E3FF"/>
</g>
<rect x="11.6514" y="12.1655" width="8.38217" height="7.25454" fill="#A3E3FF"/>
<path fill-rule="evenodd" clip-rule="evenodd" d="M15.9803 11.7551C16.155 11.8003 16.4173 11.9298 16.5732 12.0476C16.8211 12.2352 17.0256 12.5315 17.1247 12.847C17.1872 13.0457 17.204 13.4193 17.1599 13.6266C17.0668 14.0637 16.7947 14.448 16.4176 14.6751C16.3534 14.7138 16.2916 14.7485 16.2804 14.7523C16.2691 14.756 16.4224 15.3729 16.621 16.1232C16.8196 16.8736 17.0004 17.5583 17.0229 17.6449C17.0453 17.7316 17.0829 17.8719 17.1064 17.9567C17.156 18.1361 17.139 18.2135 17.0388 18.2654C16.9506 18.311 14.2331 18.311 14.1449 18.2654C14.0388 18.2105 14.0271 18.1384 14.0879 17.9146C14.1172 17.8067 14.1547 17.6665 14.1714 17.6029C14.188 17.5394 14.3641 16.8736 14.5627 16.1232C14.7613 15.3729 14.9146 14.756 14.9033 14.7523C14.8488 14.734 14.6374 14.5948 14.5408 14.5133C14.4811 14.463 14.378 14.3499 14.3118 14.262C13.8903 13.7028 13.8895 12.9237 14.3098 12.3569C14.5558 12.0252 14.9491 11.7861 15.3504 11.7243C15.5148 11.699 15.8215 11.714 15.9803 11.7551Z" fill="#34264A"/>
<path d="M21.8418 0H9.3418C4.50931 0 0.591797 3.91751 0.591797 8.75V21.25C0.591797 26.0825 4.50931 30 9.3418 30H21.8418C26.6743 30 30.5918 26.0825 30.5918 21.25V8.75C30.5918 3.91751 26.6743 0 21.8418 0Z" fill="url(#paint0_linear_1607_11316)" fill-opacity="0.25"/>
<path d="M21.8418 0.625H9.3418C4.85448 0.625 1.2168 4.26269 1.2168 8.75V21.25C1.2168 25.7373 4.85448 29.375 9.3418 29.375H21.8418C26.3291 29.375 29.9668 25.7373 29.9668 21.25V8.75C29.9668 4.26269 26.3291 0.625 21.8418 0.625Z" stroke="white" stroke-opacity="0.1"/>
<defs>
<filter id="filter0_d_1607_11316" x="4.12061" y="6.17383" width="22.9424" height="25.6519" filterUnits="userSpaceOnUse" color-interpolation-filters="sRGB">
<feFlood flood-opacity="0" result="BackgroundImageFix"/>
<feColorMatrix in="SourceAlpha" type="matrix" values="0 0 0 0 0 0 0 0 0 0 0 0 0 0 0 0 0 0 127 0" result="hardAlpha"/>
<feOffset dy="4"/>
<feGaussianBlur stdDeviation="2"/>
<feComposite in2="hardAlpha" operator="out"/>
<feColorMatrix type="matrix" values="0 0 0 0 0 0 0 0 0 0 0 0 0 0 0 0 0 0 0.25 0"/>
<feBlend mode="normal" in2="BackgroundImageFix" result="effect1_dropShadow_1607_11316"/>
<feBlend mode="normal" in="SourceGraphic" in2="effect1_dropShadow_1607_11316" result="shape"/>
</filter>
<linearGradient id="paint0_linear_1607_11316" x1="15.5918" y1="0" x2="15.5918" y2="30" gradientUnits="userSpaceOnUse">
<stop stop-color="#A3E3FF"/>
<stop offset="1" stop-color="#B85FFF" stop-opacity="0"/>
</linearGradient>
</defs>
</svg>
